<svg width="452" height="473" viewBox="0 0 452 473" fill="none" xmlns="http://www.w3.org/2000/svg">
<path d="M289.044 55.8225C289.4 54.3692 289.463 52.8595 289.228 51.3817C288.993 49.9039 288.465 48.4879 287.676 47.2168C286.887 45.9456 285.851 44.845 284.631 43.9793C283.41 43.1136 282.029 42.5004 280.569 42.1756C280.048 38.5117 278.137 35.1889 275.231 32.8966C272.326 30.6044 268.65 29.5186 264.965 29.8646C261.471 30.3457 258.279 32.1369 254.81 32.7659C251.341 33.3949 248.056 32.8531 244.671 33.1091C241.287 33.3652 237.661 34.6807 236.049 37.6849C234.283 40.9543 235.817 45.3084 238.583 47.8807C241.348 50.453 245.035 51.6749 248.611 52.8421C247.693 53.081 246.893 53.6456 246.36 54.4306C245.828 55.2156 245.599 56.1674 245.716 57.1087C246.014 59.0243 247.01 60.7621 248.511 61.9883C250.849 64.1076 253.727 65.5403 256.827 66.1286C259.928 66.717 263.13 66.4381 266.082 65.3226L274.59 62.8254C275.998 63.3311 277.492 63.5507 278.986 63.4712C280.48 63.3917 281.943 63.0148 283.289 62.3626C284.635 61.7103 285.838 60.7959 286.826 59.6728C287.814 58.5498 288.568 57.2408 289.044 55.8225Z" fill="#263238"/>
<path d="M264.18 71.392C263.319 71.7014 262.375 71.6815 261.528 71.3363C260.681 70.9911 259.992 70.3449 259.593 69.522C259.228 68.6802 259.101 67.7545 259.227 66.8457C259.352 65.9369 259.725 65.08 260.304 64.3685C261.505 62.9799 263.152 62.0521 264.962 61.7442C266.765 61.4311 268.603 61.379 270.421 61.5895C273.239 61.7627 276.026 62.2757 278.721 63.1174C279.685 63.3873 280.578 63.8672 281.335 64.5227C281.712 64.8546 281.993 65.2819 282.148 65.7597C282.303 66.2376 282.326 66.7484 282.215 67.2384C281.809 68.5796 280.262 69.1536 278.91 69.5082C273.841 70.8621 268.659 71.7511 263.428 72.1643" fill="#407BFF"/>
<path d="M260.598 69.244C257.068 59.899 241.244 54.8296 235.792 57.9008C233.574 55.5193 230.525 54.0829 227.277 53.8896C224.028 53.6963 220.83 54.761 218.346 56.8628L200.526 53.9724C197.479 53.4806 194.29 52.9838 191.392 54.0244C188.493 55.0649 186.094 58.2197 186.973 61.1461C180.607 60.3598 174.925 68.0655 177.583 73.921C176.774 74.342 176.061 74.9239 175.486 75.6309C174.911 76.338 174.487 77.1552 174.24 78.0323C173.993 78.9094 173.928 79.8278 174.049 80.731C174.17 81.6341 174.475 82.503 174.944 83.2839C168.251 86.9331 162.231 91.7005 157.145 97.3798C154.963 99.7618 152.977 102.514 152.911 105.688C152.845 108.862 155.735 112.229 158.814 111.45C157.558 112.27 156.565 113.435 155.953 114.804C155.342 116.174 155.138 117.691 155.367 119.173C152.557 118.142 150.031 122.102 151.152 124.88C152.274 127.659 155.273 129.09 158.059 130.085C160.846 131.08 163.92 132.154 165.581 134.637C165.423 134.97 165.199 135.267 164.923 135.511C164.647 135.755 164.324 135.94 163.974 136.054C157.676 138.043 153.688 144.182 155.282 150.583C155.437 151.173 155.581 151.725 155.709 152.211C156.473 155.125 159.57 158.803 161.538 161.065C166.502 166.779 170.499 167.681 177.103 171.464C173.407 175.239 180.828 189.738 197.741 185.05C220.956 202.311 238.65 212.376 265.52 223.08C269.359 224.613 274.177 225.917 277.24 223.15C280.029 225.225 283.952 225.094 287.149 223.751C290.258 222.213 293.083 220.158 295.504 217.674C299.202 218.02 302.916 217.213 306.137 215.364C309.357 213.514 311.927 210.713 313.491 207.345C316.443 206.46 319.179 204.971 321.525 202.972C323.87 200.973 325.774 198.507 327.115 195.733C334.354 196.318 341.224 189.34 340.535 182.112C342.284 173.622 342.614 164.902 341.514 156.305C346.293 157.086 350.298 151.813 350.121 146.962C349.943 142.112 347.002 137.958 344.135 133.982C347.09 136.153 351.592 133.149 352.117 129.532C352.642 125.914 350.567 122.445 348.332 119.538C345.071 115.27 341.304 111.414 337.113 108.056C337.833 101.651 333.033 92.1199 328.627 87.4102C310.847 68.4019 296.546 59.7202 260.593 69.1189" fill="#263238"/>
<path d="M226.219 95.8249C226.927 93.5402 228.471 91.6068 230.543 90.4108C232.614 89.2148 235.06 88.8443 237.393 89.3731L289.479 93.3953C305.393 96.9396 309.247 119.291 305.029 135.045C300.345 152.549 293.944 173.73 287.617 185.828C274.9 210.209 250.82 205.383 250.82 205.383L244.468 223.969L237.182 245.677C230.292 241.984 187.236 214.66 187.236 214.66L226.219 95.8249Z" fill="#FFBF9D"/>
<path d="M265.743 163.993C265.786 163.785 268.124 164.141 271.856 164.888C272.797 165.104 273.71 165.216 274.066 164.645C274.457 163.736 274.565 162.73 274.375 161.758C274.259 159.282 274.138 156.68 274.012 153.954C273.582 142.842 273.608 133.897 274.052 133.879C274.497 133.861 275.208 142.836 275.628 153.909C275.726 156.689 275.788 159.227 275.853 161.721C276.056 163.005 275.8 164.32 275.128 165.433C274.889 165.707 274.591 165.923 274.256 166.064C273.921 166.206 273.558 166.269 273.195 166.249C272.649 166.218 272.11 166.119 271.589 165.954C267.94 164.989 265.679 164.178 265.743 163.993Z" fill="#263238"/>
<path d="M250.817 205.369C250.817 205.369 236.414 202.13 222.733 186.074C222.733 186.074 220.443 206.613 247.775 214.263L250.817 205.369Z" fill="#FF9A6C"/>
<path d="M265.976 119.342C265.301 120.192 261.908 118.542 257.575 117.644C253.243 116.745 249.497 116.746 249.238 115.705C249.107 115.206 250.014 114.491 251.684 114.011C253.881 113.478 256.17 113.451 258.379 113.931C260.588 114.412 262.659 115.388 264.436 116.785C265.693 117.943 266.212 118.957 265.976 119.342Z" fill="#263238"/>
<path d="M299.67 131.778C298.775 132.377 296.587 130.72 293.678 129.687C290.769 128.654 288.067 128.352 287.782 127.374C287.655 126.889 288.332 126.206 289.687 125.809C291.449 125.356 293.308 125.467 295.004 126.126C296.723 126.738 298.21 127.868 299.261 129.36C300.018 130.536 300.029 131.487 299.67 131.778Z" fill="#263238"/>
<path d="M311.696 151.58C313.139 147.532 313.144 143.111 311.71 139.06C310.836 136.904 309.418 134.975 308.774 132.73C307.379 127.891 309.777 122.856 310.332 117.856C310.657 114.616 310.204 111.345 309.012 108.314C307.82 105.284 305.922 102.581 303.476 100.431C299.38 96.9031 293.914 95.053 290.387 90.9686C287.772 87.9502 286.429 83.9527 283.595 81.1178C278.159 75.5278 269.21 75.966 261.541 77.2752C258.393 81.7488 259.94 87.222 261.327 92.5128C262.054 95.1492 263.341 97.5976 265.101 99.691C266.86 101.784 269.051 103.473 271.523 104.642C275.389 106.435 280.33 107.3 282.024 111.191C283.799 115.286 280.647 120.069 281.724 124.389C283.276 130.576 291.806 131.75 295.78 136.741C298.837 140.584 298.678 145.971 299.066 150.878C299.455 155.785 301.248 161.447 305.921 163C308.274 159.425 310.212 155.594 311.696 151.58Z" fill="#263238"/>
<path d="M267.972 90.0831C256.458 85.4341 244.153 83.0618 231.736 83.0977C228.049 83.1103 224.129 83.4086 221.175 85.6283C218.583 87.5706 217.151 90.6683 216.014 93.7165C212.472 103.218 211.802 116.288 211.971 126.458L221.058 138.107C230.999 139.471 232.894 122.137 235.511 114.084C239.239 113.862 242.829 112.597 245.874 110.434C248.919 108.272 251.295 105.298 252.733 101.852C255.996 101.167 259.063 99.7527 261.702 97.7146C264.341 95.6764 266.484 93.0674 267.972 90.0831Z" fill="#263238"/>
<path d="M222.28 134.629C224.02 129.066 217.766 125.444 212.037 126.441C208.896 126.984 205.765 129.278 203.897 135.156C198.855 150.818 215.629 152.663 215.805 152.21C215.981 151.757 220.237 141.128 222.28 134.629Z" fill="#FFBF9D"/>
<path d="M212.922 144.744C212.897 144.652 212.58 144.834 212.068 144.968C211.33 145.039 210.593 144.82 210.014 144.356C208.549 143.211 208.01 140.139 208.833 137.285C209.229 135.929 209.922 134.679 210.862 133.625C211.166 133.183 211.574 132.823 212.048 132.573C212.523 132.324 213.052 132.194 213.588 132.194C213.929 132.211 214.253 132.347 214.504 132.579C214.755 132.811 214.916 133.124 214.958 133.462C215.086 133.948 214.826 134.241 214.912 134.302C214.998 134.364 215.332 134.192 215.406 133.457C215.439 133.04 215.33 132.623 215.096 132.276C214.768 131.812 214.272 131.494 213.713 131.39C213.03 131.315 212.338 131.414 211.704 131.679C211.069 131.943 210.511 132.364 210.083 132.903C208.973 134.043 208.164 135.442 207.727 136.972C206.809 140.159 207.467 143.635 209.527 145.017C209.909 145.274 210.342 145.443 210.797 145.51C211.252 145.578 211.716 145.543 212.156 145.408C212.764 145.108 212.962 144.79 212.922 144.744Z" fill="#FF9A6C"/>
<path d="M208.714 150.533C208.714 150.533 208.714 150.533 208.594 150.719C208.474 150.903 208.329 151.069 208.162 151.211C207.495 151.79 206.645 152.112 205.763 152.121C204.368 152.185 202.975 151.958 201.673 151.454C200.84 151.154 200.036 150.778 199.273 150.329C198.388 149.844 197.585 149.221 196.895 148.483L197.105 148.428C196.396 149.647 195.382 150.662 194.163 151.372C192.944 152.082 191.562 152.463 190.151 152.478C188.74 152.493 187.35 152.141 186.116 151.457C184.882 150.772 183.847 149.779 183.113 148.575L183.393 148.628C182.656 149.14 181.747 149.343 180.862 149.193C179.967 149.042 179.135 148.637 178.465 148.026C177.747 147.386 177.261 146.527 177.081 145.582C176.899 144.63 176.965 143.646 177.272 142.726C177.921 140.853 179.209 139.268 180.911 138.25C182.664 137.238 184.533 136.442 186.477 135.879L186.376 136.242C185.893 135.595 185.552 134.854 185.374 134.066C185.197 133.279 185.187 132.463 185.346 131.671C185.63 130.036 186.388 128.519 187.528 127.311C188.724 126.122 190.138 125.175 191.693 124.521C193.259 123.862 194.865 123.305 196.503 122.853L196.352 123.187C196.03 122.384 195.881 121.521 195.916 120.656C195.95 119.791 196.167 118.943 196.551 118.168C197.303 116.551 198.521 115.196 200.049 114.276C202.985 112.524 206.389 112.235 209.539 111.942L209.318 112.169C209.524 110.41 210.157 108.729 211.162 107.271C212.167 105.813 213.513 104.623 215.083 103.804C216.653 102.986 218.4 102.564 220.17 102.575C221.941 102.586 223.682 103.03 225.242 103.868L224.908 104.04C225.168 102.626 225.749 101.29 226.607 100.136C227.465 98.9817 228.576 98.0399 229.855 97.3831C231.021 96.7286 232.315 96.3341 233.648 96.2268C234.981 96.1195 236.322 96.3018 237.577 96.7614L237.302 96.8336C237.842 95.5415 238.668 94.3886 239.718 93.462C240.768 92.5353 242.014 91.859 243.364 91.4839C244.534 91.1172 245.766 90.9907 246.987 91.1119C248.207 91.2332 249.391 91.5996 250.466 92.1894L250.216 92.2548C250.84 90.8907 251.791 89.7016 252.985 88.7929C254.006 87.9673 255.161 87.3227 256.4 86.8872C258.363 86.1328 260.524 86.0605 262.534 86.682L263.115 86.8663C263.304 86.9431 263.482 87.0366 263.645 87.1203C263.962 87.2665 264.271 87.4289 264.572 87.6068C265.032 87.8988 265.469 88.225 265.88 88.5827C266.183 88.8821 266.413 89.1164 266.596 89.2789L266.829 89.5265C266.733 89.4658 266.644 89.395 266.564 89.3155L265.815 88.6558C265.401 88.3139 264.963 88.0021 264.504 87.7228C264.208 87.5495 263.9 87.3958 263.584 87.2626L263.058 87.0217L262.48 86.8505C260.506 86.2939 258.405 86.4012 256.498 87.156C255.295 87.6048 254.175 88.2495 253.182 89.0639C252.033 89.939 251.124 91.0895 250.538 92.4091L250.457 92.5845L250.305 92.4842C249.268 91.9225 248.129 91.5776 246.955 91.4705C245.781 91.3634 244.597 91.4963 243.477 91.8612C242.173 92.2402 240.975 92.9143 239.975 93.8312C238.974 94.7481 238.198 95.8831 237.707 97.1483L237.634 97.35L237.445 97.2731C236.242 96.8489 234.962 96.69 233.693 96.8074C232.423 96.9248 231.193 97.3157 230.089 97.9532C228.872 98.5802 227.815 99.4779 226.999 100.577C226.182 101.677 225.629 102.948 225.381 104.295L225.326 104.618L225.048 104.466C223.554 103.681 221.892 103.269 220.204 103.266C218.516 103.263 216.853 103.67 215.357 104.452C213.861 105.233 212.576 106.365 211.614 107.752C210.651 109.139 210.04 110.738 209.831 112.413L209.879 112.597L209.682 112.648C206.532 112.941 203.214 113.236 200.451 114.9C199.03 115.772 197.899 117.045 197.201 118.559C196.844 119.272 196.642 120.053 196.609 120.85C196.576 121.648 196.713 122.443 197.01 123.183L197.079 123.445L196.804 123.518C193.572 124.463 190.308 125.501 188.044 127.835C186.964 128.965 186.244 130.389 185.974 131.928C185.825 132.654 185.83 133.404 185.988 134.128C186.147 134.853 186.456 135.536 186.894 136.134L187.105 136.402L186.777 136.488C184.867 137.035 183.03 137.813 181.309 138.805C179.69 139.757 178.461 141.253 177.841 143.026C177.52 143.835 177.447 144.722 177.63 145.573C177.813 146.424 178.245 147.202 178.871 147.807C179.434 148.392 180.18 148.769 180.985 148.876C181.79 148.983 182.608 148.815 183.305 148.398L183.472 148.284L183.589 148.464C184.373 149.696 185.481 150.69 186.791 151.336C188.101 151.982 189.563 152.256 191.018 152.129C192.246 151.997 193.427 151.585 194.47 150.925C195.513 150.264 196.391 149.373 197.035 148.32L197.132 148.154L197.252 148.291C197.918 149.012 198.69 149.628 199.541 150.118C200.289 150.566 201.078 150.941 201.898 151.24C203.171 151.75 204.534 151.999 205.906 151.971C206.764 151.971 207.597 151.683 208.273 151.154C208.539 150.776 208.694 150.511 208.714 150.533Z" fill="#455A64"/>
<path d="M156.656 111.511C156.539 111.138 156.466 110.752 156.438 110.361C156.33 109.232 156.451 108.093 156.795 107.013C157.318 105.275 158.4 103.758 159.873 102.698C160.867 102 161.996 101.516 163.188 101.279C164.379 101.041 165.607 101.055 166.793 101.318L166.583 101.373C167.082 98.5697 168.625 96.0592 170.901 94.3483C172.147 93.3762 173.587 92.6828 175.124 92.3149C176.763 92.0441 178.424 91.9281 180.084 91.9684C180.924 91.9492 181.757 91.8066 182.555 91.5451C183.361 91.2702 184.091 90.8097 184.686 90.2006C185.943 89.0011 186.83 87.3515 188.297 86.097C189.852 84.8373 191.749 84.073 193.743 83.9028C195.736 83.7327 197.736 84.1646 199.482 85.1426L199.101 85.2424C199.554 83.2769 200.454 81.4421 201.73 79.8799C203.007 78.3177 204.625 77.0701 206.461 76.2334C208.296 75.3968 210.3 74.9936 212.316 75.055C214.332 75.1164 216.307 75.6409 218.088 76.5878L217.721 76.6841C218.299 74.5491 219.477 72.6246 221.116 71.1389C222.754 69.6531 224.785 68.6686 226.966 68.3019C229.147 67.9353 231.388 68.202 233.422 69.0703C235.457 69.9386 237.199 71.3722 238.443 73.201L238.186 73.1282C240.283 72.2536 242.544 71.8426 244.815 71.9231C246.838 71.9583 248.848 72.2517 250.797 72.7962C253.972 73.6322 256.972 75.0318 259.653 76.9282C261.389 78.1137 262.919 79.5751 264.183 81.2546C264.518 81.6948 264.818 82.1602 265.081 82.6467C265.182 82.8039 265.272 82.9679 265.35 83.1374C265.35 83.1374 264.954 82.4836 264.092 81.3347C262.791 79.7047 261.25 78.2826 259.52 77.1174C256.844 75.2769 253.863 73.9256 250.715 73.1263C248.788 72.5961 246.801 72.3201 244.803 72.3052C242.593 72.2455 240.395 72.6543 238.355 73.5048L238.197 73.5462L238.156 73.3886C236.944 71.6518 235.262 70.2972 233.307 69.4841C231.352 68.6709 229.205 68.4332 227.12 68.7987C225.034 69.1643 223.096 70.118 221.534 71.5476C219.972 72.9772 218.851 74.8232 218.302 76.8684L218.227 77.1688L217.952 77.0304C216.228 76.099 214.312 75.5797 212.354 75.5134C210.396 75.4471 208.449 75.8355 206.667 76.6483C204.884 77.461 203.314 78.6759 202.08 80.1976C200.846 81.7192 199.981 83.5063 199.554 85.4183L199.472 85.7484L199.187 85.5707C197.529 84.6567 195.636 84.2589 193.75 84.4283C191.865 84.5977 190.073 85.3266 188.604 86.5214C187.212 87.6862 186.322 89.3226 185.004 90.6084C184.354 91.2548 183.566 91.7445 182.699 92.0405C181.863 92.3045 180.993 92.4475 180.116 92.4651C178.478 92.4251 176.84 92.5353 175.222 92.7944C173.737 93.1334 172.344 93.7907 171.139 94.7208C168.93 96.3501 167.416 98.7507 166.897 101.445L166.859 101.624L166.694 101.583C165.553 101.32 164.37 101.298 163.22 101.518C162.069 101.737 160.977 102.193 160.013 102.858C158.546 103.869 157.452 105.334 156.897 107.028C156.546 108.085 156.4 109.2 156.467 110.312C156.579 111.11 156.682 111.504 156.656 111.511Z" fill="#455A64"/>
<path d="M301.68 172.46C301.656 172.226 301.683 171.99 301.757 171.767C301.832 171.545 301.953 171.34 302.113 171.168C302.489 170.748 302.966 170.43 303.498 170.244C304.229 170.024 304.997 169.951 305.757 170.03C306.685 170.135 307.623 170.111 308.545 169.959C309.607 169.666 310.545 169.036 311.217 168.164C312.014 167.169 312.607 166.027 312.959 164.802C313.396 163.523 313.659 162.121 314.275 160.669C315.374 157.743 317.742 155.27 319.73 152.363C320.777 150.872 321.514 149.186 321.895 147.404C322.11 146.479 322.123 145.518 321.932 144.587C321.741 143.656 321.352 142.778 320.79 142.011C319.396 140.524 317.826 139.211 316.117 138.101C315.24 137.452 314.478 136.661 313.861 135.76C313.269 134.801 312.925 133.71 312.86 132.585C312.867 130.346 313.109 128.115 313.584 125.927C313.773 124.832 313.797 123.714 313.655 122.611C313.484 121.519 312.959 120.513 312.16 119.748C310.916 118.849 309.566 118.105 308.142 117.532C307.423 117.185 306.766 116.722 306.197 116.162C305.637 115.581 305.245 114.86 305.061 114.075C304.812 112.575 304.78 111.048 304.966 109.54C305.075 108.11 304.876 106.675 304.381 105.329C303.925 104.043 303.207 102.866 302.273 101.872C301.338 100.878 300.208 100.089 298.952 99.5548C296.587 98.5644 293.935 98.5031 291.527 99.3831L291.238 99.4588L291.162 99.17C291.017 96.9518 290.401 94.7899 289.355 92.8287C288.308 90.8675 286.855 89.152 285.093 87.7966C283.618 86.6724 281.938 85.8453 280.147 85.3613C278.631 84.9336 277.051 84.7778 275.481 84.9012C273.268 85.0982 271.157 85.9242 269.398 87.2818C268.931 87.6317 268.493 88.0187 268.088 88.4391L267.759 88.7358L267.614 88.7737L267.709 88.6508L268.014 88.3181C268.41 87.88 268.845 87.4794 269.314 87.1214C271.061 85.6896 273.193 84.8083 275.441 84.5889C277.043 84.4352 278.659 84.5774 280.209 85.0083C282.047 85.4859 283.774 86.3146 285.297 87.4487C287.113 88.8293 288.613 90.5822 289.696 92.59C290.779 94.5977 291.42 96.8137 291.576 99.0895L291.274 98.9021C293.783 97.9626 296.556 98.0133 299.029 99.0437C300.358 99.5902 301.559 100.407 302.555 101.443C303.552 102.479 304.321 103.711 304.816 105.061C305.328 106.463 305.538 107.957 305.432 109.445C305.255 110.909 305.28 112.389 305.506 113.846C305.712 114.549 306.073 115.196 306.563 115.74C307.053 116.285 307.659 116.712 308.336 116.99C309.809 117.566 311.199 118.334 312.471 119.274C313.345 120.117 313.92 121.222 314.11 122.422C314.272 123.573 314.252 124.743 314.051 125.889C313.582 128.044 313.34 130.242 313.33 132.448C313.375 133.492 313.689 134.507 314.242 135.394C314.83 136.254 315.555 137.012 316.388 137.637C318.129 138.769 319.722 140.114 321.128 141.642C321.762 142.457 322.182 143.418 322.352 144.436C322.516 145.418 322.498 146.421 322.3 147.396C321.909 149.232 321.147 150.97 320.061 152.501C318.027 155.448 315.658 157.865 314.578 160.702C314.035 162.107 313.689 163.517 313.243 164.812C312.837 166.076 312.192 167.25 311.343 168.271C310.623 169.18 309.624 169.826 308.5 170.111C307.575 170.262 306.631 170.273 305.703 170.143C304.965 170.049 304.216 170.102 303.499 170.3C302.98 170.464 302.512 170.755 302.136 171.148C301.83 171.516 301.669 171.982 301.68 172.46Z" fill="#455A64"/>
<path d="M340.637 160.239C340.59 160.13 340.56 160.015 340.548 159.897L340.46 158.868C340.387 157.947 340.293 156.625 340.172 154.931C340.05 153.237 339.947 151.131 339.597 148.725C339.322 145.995 338.281 143.399 336.594 141.234C335.62 140.087 334.344 139.018 333.172 137.922C332.547 137.319 332.005 136.636 331.559 135.89C331.086 135.102 330.813 134.21 330.766 133.292C330.655 131.427 331.329 129.608 331.387 127.741C331.426 126.817 331.186 125.902 330.698 125.115C330.143 124.307 329.458 123.596 328.673 123.009C327.838 122.386 327.063 121.687 326.357 120.922C325.644 120.085 325.206 119.049 325.102 117.954C325.142 115.764 325.478 113.59 326.101 111.49C326.347 110.438 326.371 109.348 326.173 108.286C326.053 107.764 325.83 107.271 325.518 106.835C325.207 106.399 324.812 106.029 324.357 105.746C322.496 104.536 320.062 104.402 317.968 103.212C316.921 102.575 316.099 101.628 315.616 100.503C315.19 99.4167 314.893 98.2843 314.731 97.129C314.534 96.0021 314.366 94.8814 314.074 93.8215C313.814 92.7801 313.297 91.8206 312.571 91.0307C311.068 89.4743 308.816 89.1248 306.749 88.839C304.622 88.7072 302.55 88.1107 300.678 87.0914C299.039 85.9371 297.628 84.4901 296.514 82.8233C295.527 81.2476 294.392 79.7692 293.126 78.4081C290.567 76.2788 287.437 74.952 284.128 74.5937C281.404 74.2682 278.642 74.5655 276.049 75.4631C274.099 76.1613 272.268 77.1572 270.622 78.4156C269.593 79.2265 268.636 80.1252 267.762 81.1017L267.06 81.8471L266.803 82.097L267.023 81.8146L267.686 81.0235C268.54 80.0173 269.486 79.0929 270.511 78.2622C272.156 76.9579 273.996 75.9214 275.964 75.1909C278.581 74.2586 281.377 73.9383 284.137 74.2545C287.523 74.6002 290.731 75.9416 293.356 78.1092C294.702 79.4193 295.916 80.8587 296.98 82.4065C298.072 84.0212 299.448 85.4243 301.041 86.5474C302.844 87.5184 304.836 88.0875 306.88 88.2154C307.956 88.3473 309.02 88.5607 310.064 88.8538C311.178 89.1431 312.191 89.7336 312.992 90.5606C313.793 91.3876 314.351 92.4192 314.604 93.5422C314.893 94.6479 315.121 95.7684 315.288 96.8987C315.44 98.0145 315.727 99.1077 316.142 100.155C316.572 101.189 317.321 102.059 318.28 102.639C320.239 103.795 322.673 103.928 324.683 105.169C325.707 105.815 326.435 106.84 326.707 108.02C326.921 109.146 326.895 110.306 326.631 111.421C326.234 113.602 325.448 115.688 325.636 117.743C325.725 118.751 326.127 119.706 326.787 120.472C327.468 121.217 328.216 121.9 329.019 122.511C329.856 123.13 330.577 123.89 331.152 124.758C331.695 125.625 331.96 126.637 331.912 127.659C331.84 129.629 331.172 131.417 331.268 133.174C331.437 134.877 332.252 136.45 333.544 137.572C334.696 138.758 335.965 139.744 336.973 140.967C338.665 143.181 339.704 145.825 339.971 148.599C340.298 151.025 340.345 153.131 340.457 154.842C340.569 156.552 340.6 157.849 340.65 158.79C340.665 159.221 340.682 159.553 340.695 159.817C340.694 159.959 340.674 160.101 340.637 160.239Z" fill="#455A64"/>
<path d="M330.536 137.87L330.833 137.933C331.118 138.032 331.375 138.201 331.579 138.424C331.922 138.896 332.144 139.445 332.227 140.022C332.31 140.599 332.251 141.188 332.055 141.737C331.748 142.508 331.339 143.233 330.838 143.894C330.247 144.66 329.764 145.504 329.405 146.403C329.12 147.465 329.118 148.582 329.4 149.645C329.699 150.787 330.019 152.008 330.229 153.343C330.364 154.053 330.334 154.785 330.142 155.482C329.951 156.179 329.602 156.823 329.123 157.365C328.125 158.482 326.796 159.195 325.766 160.35C324.817 161.603 324.384 163.173 324.559 164.735C324.607 166.364 324.939 168.059 324.917 169.847C324.929 170.759 324.772 171.666 324.454 172.522C324.096 173.391 323.561 174.176 322.884 174.828C321.452 176.05 319.91 177.136 318.276 178.07C316.624 178.993 315.378 180.502 314.782 182.298C314.496 184.248 314.445 186.226 314.629 188.189C314.639 189.226 314.462 190.256 314.107 191.23C313.709 192.185 313.097 193.037 312.319 193.719C310.775 194.921 309.098 195.94 307.32 196.756C305.656 197.551 304.171 198.676 302.953 200.062C301.906 201.527 300.756 202.917 299.511 204.219C298.861 204.84 298.071 205.297 297.209 205.552C296.372 205.771 295.503 205.843 294.641 205.763C293.837 205.694 293.03 205.671 292.224 205.695C291.454 205.769 290.698 205.943 289.974 206.215C288.623 206.819 287.355 207.595 286.202 208.523C285.03 209.405 283.964 210.26 282.836 210.991C280.798 212.318 278.385 212.951 275.957 212.795C274.14 212.71 272.365 212.216 270.765 211.35C269.757 210.799 268.842 210.092 268.055 209.254C267.781 208.967 267.53 208.657 267.307 208.328C268.308 209.479 269.51 210.438 270.855 211.158C272.438 211.982 274.184 212.445 275.967 212.511C278.332 212.607 280.665 211.946 282.628 210.624C283.729 209.901 284.796 209.046 285.951 208.154C287.124 207.182 288.421 206.37 289.808 205.739C290.554 205.425 291.34 205.218 292.145 205.127C292.968 205.093 293.793 205.111 294.614 205.181C295.43 205.256 296.253 205.187 297.045 204.978C297.84 204.732 298.569 204.306 299.173 203.733C300.391 202.434 301.52 201.055 302.553 199.605C303.804 198.173 305.331 197.009 307.044 196.183C308.764 195.38 310.385 194.38 311.875 193.204C312.599 192.578 313.166 191.79 313.531 190.904C313.871 189.993 314.036 189.026 314.018 188.054C313.833 186.047 313.892 184.024 314.193 182.031C314.453 181.052 314.949 180.151 315.638 179.407C316.327 178.683 317.102 178.046 317.947 177.511C319.558 176.646 321.093 175.647 322.538 174.525C323.161 173.913 323.656 173.182 323.995 172.376C324.292 171.57 324.444 170.718 324.443 169.859C324.469 168.14 324.141 166.458 324.095 164.786C323.927 163.114 324.408 161.441 325.438 160.113C326.52 158.889 327.878 158.182 328.863 157.124C329.31 156.627 329.637 156.033 329.818 155.39C330 154.746 330.031 154.07 329.91 153.412C329.744 152.137 329.342 150.923 329.118 149.747C328.838 148.629 328.86 147.457 329.181 146.349C329.551 145.43 330.053 144.571 330.673 143.797C331.181 143.162 331.596 142.458 331.906 141.706C332.106 141.184 332.176 140.622 332.111 140.067C332.046 139.513 331.848 138.982 331.534 138.52C331.271 138.212 330.924 137.986 330.536 137.87Z" fill="#455A64"/>
<path d="M252.74 164.863C253.142 164.452 253.687 164.212 254.262 164.192C254.836 164.172 255.397 164.373 255.827 164.755C258.564 167.166 261.3 169.578 264.054 171.999L264.978 172.795C263.746 174.584 262.284 176.204 260.629 177.611C259.906 178.209 259.062 178.641 258.155 178.879C257.248 179.117 256.3 179.154 255.377 178.988C253.917 178.539 252.638 177.636 251.727 176.409C250.239 174.428 248.908 172.35 249.351 169.919C249.67 168.137 251.582 166.12 252.74 164.863Z" fill="#FF9A6C"/>
<path d="M200.623 144.503C199.67 144.495 198.723 144.644 197.82 144.943C195.294 145.728 193.132 147.39 191.724 149.629C190.731 151.158 190.107 152.897 189.899 154.709C189.697 156.792 189.988 158.893 190.749 160.842C191.576 163.007 192.943 164.923 194.721 166.41C196.646 168.006 199.01 168.981 201.501 169.206C203.983 169.457 206.485 169.006 208.722 167.902C210.807 166.869 212.548 165.252 213.732 163.249C214.733 161.568 215.334 159.679 215.489 157.729C215.644 155.778 215.349 153.818 214.627 152C214.005 150.634 213.116 149.408 212.011 148.392C211.2 147.614 210.285 146.952 209.293 146.425C208.661 146.097 207.985 145.863 207.286 145.73C207.045 145.668 206.794 145.658 206.549 145.699C207.471 145.864 208.358 146.187 209.17 146.654C211.388 147.917 213.154 149.844 214.22 152.163C214.884 153.919 215.14 155.804 214.969 157.674C214.798 159.544 214.205 161.351 213.235 162.958C212.096 164.853 210.436 166.38 208.452 167.355C206.312 168.391 203.926 168.812 201.56 168.573C199.197 168.361 196.952 167.444 195.117 165.941C193.41 164.524 192.091 162.698 191.284 160.632C190.54 158.768 190.243 156.755 190.416 154.756C190.596 153.02 191.171 151.348 192.095 149.868C193.435 147.693 195.476 146.039 197.882 145.18C199.636 144.593 200.63 144.585 200.623 144.503Z" fill="#E0E0E0"/>
<path d="M256.488 140.897C256.201 141.785 255.578 142.524 254.751 142.955C253.925 143.387 252.962 143.477 252.07 143.206C251.626 143.1 251.207 142.906 250.84 142.635C250.472 142.364 250.162 142.022 249.928 141.63C249.694 141.237 249.541 140.802 249.479 140.349C249.416 139.897 249.445 139.436 249.563 138.995C249.853 138.11 250.477 137.373 251.302 136.942C252.127 136.51 253.089 136.419 253.981 136.686C254.427 136.789 254.848 136.981 255.218 137.251C255.588 137.521 255.899 137.863 256.133 138.256C256.368 138.65 256.52 139.087 256.581 139.541C256.642 139.995 256.61 140.456 256.488 140.897Z" fill="#263238"/>
<path d="M288.948 152.858C288.655 153.741 288.031 154.475 287.206 154.906C286.382 155.337 285.422 155.43 284.53 155.166C284.085 155.059 283.666 154.863 283.298 154.592C282.929 154.32 282.619 153.977 282.385 153.583C282.151 153.19 281.998 152.753 281.935 152.299C281.873 151.846 281.901 151.384 282.02 150.942C282.312 150.059 282.937 149.324 283.761 148.893C284.586 148.463 285.545 148.369 286.437 148.633C286.882 148.741 287.301 148.936 287.67 149.208C288.038 149.48 288.349 149.823 288.583 150.217C288.816 150.61 288.969 151.047 289.032 151.5C289.095 151.954 289.066 152.415 288.948 152.858Z" fill="#263238"/>
<path d="M294.818 143.237C294.315 143.621 292.437 140.901 289.029 139.998C285.622 139.096 282.618 140.43 282.378 139.834C282.305 139.558 282.866 138.808 284.189 138.18C285.899 137.381 287.837 137.215 289.658 137.711C291.479 138.208 293.065 139.335 294.132 140.891C294.943 142.11 295.069 143.073 294.818 143.237Z" fill="#263238"/>
<path d="M262.563 133.832C261.908 134.172 259.958 130.909 256.004 129.421C252.05 127.932 248.391 128.961 248.156 128.279C248.07 127.951 248.832 127.218 250.466 126.706C252.614 126.084 254.907 126.183 256.994 126.986C259.065 127.78 260.812 129.243 261.956 131.143C262.816 132.658 262.861 133.684 262.563 133.832Z" fill="#263238"/>
<path d="M258.02 178.576C258.02 178.576 257.595 178.884 256.707 178.92C255.395 178.945 254.108 178.561 253.024 177.823C251.388 176.78 250.092 175.281 249.297 173.511C248.8 172.431 248.622 171.231 248.784 170.054C248.999 168.817 249.494 167.647 250.229 166.63C250.931 165.647 251.746 164.751 252.658 163.959C252.901 163.701 253.197 163.5 253.526 163.367C253.854 163.235 254.208 163.176 254.562 163.193C255.204 163.328 255.785 163.668 256.219 164.162L260.239 167.934C261.532 169.061 262.697 170.327 263.712 171.71C262.247 170.816 260.888 169.761 259.66 168.563C258.37 167.498 256.963 166.253 255.477 164.973C254.652 164.179 254.173 164.066 253.362 164.826C252.525 165.579 251.771 166.421 251.116 167.337C250.462 168.146 250.033 169.113 249.874 170.14C249.715 171.168 249.83 172.219 250.209 173.188C250.907 174.799 252.019 176.197 253.432 177.239C254.384 177.957 255.509 178.407 256.693 178.545C257.52 178.595 258.009 178.481 258.02 178.576Z" fill="#263238"/>
<path d="M363.558 96.3229C362.64 94.8496 361.549 93.4917 360.309 92.2781C358.807 90.9261 357.064 89.8694 355.17 89.1635C352.681 88.2321 349.985 87.9934 347.37 88.4726L346.963 88.5793L346.853 88.1592C346.211 84.6848 344.239 81.5978 341.356 79.5545C339.75 78.3245 337.891 77.465 335.914 77.0375C333.936 76.6099 331.889 76.625 329.918 77.0815L329.406 77.2157L329.272 76.7037C327.721 71.2371 324.133 66.5734 319.246 63.6738C315.429 61.4394 311.011 60.4498 306.606 60.8426C302.576 61.1834 298.717 62.6224 295.448 65.003L295.235 65.1569L294.974 65.071C290.625 63.5598 286.007 62.9736 281.418 63.3498C277.84 63.613 274.325 64.4352 271.001 65.7866C268.093 67.0415 265.321 68.5911 262.728 70.411C262.728 70.411 262.865 70.235 263.184 69.9548C263.503 69.6747 263.979 69.2413 264.638 68.7597C266.534 67.3666 268.577 66.1863 270.731 65.2399C274.083 63.7568 277.651 62.8212 281.299 62.4689C286.016 62.0192 290.774 62.5693 295.263 64.0834L294.803 64.2039C298.199 61.6645 302.235 60.1205 306.458 59.7448C311.091 59.2993 315.745 60.3278 319.758 62.6836C324.899 65.7218 328.662 70.6347 330.256 76.3896L329.609 76.0119C331.732 75.5316 333.935 75.5269 336.06 75.9983C338.185 76.4697 340.179 77.4055 341.9 78.7384C344.959 80.936 347.036 84.2449 347.684 87.9555L347.203 87.6186C349.963 87.1434 352.801 87.4543 355.393 88.5157C357.341 89.283 359.113 90.4362 360.604 91.906C361.545 92.8272 362.349 93.8776 362.993 95.0258C363.23 95.4352 363.42 95.8704 363.558 96.3229Z" fill="#263238"/>
<path d="M261.721 50.7234C260.301 50.8494 258.871 50.6589 257.534 50.1656C255.656 49.5511 253.92 48.567 252.428 47.2713C250.937 45.9756 249.72 44.3945 248.849 42.6211C247.633 40.1035 247.22 37.2737 247.663 34.5135C248.154 31.3319 249.635 28.3859 251.895 26.0936C254.482 23.5861 257.936 22.1729 261.538 22.148C265.457 22.0395 269.26 23.4764 272.128 26.1483L271.472 26.0538C273.632 24.9054 276.121 24.5351 278.521 25.0052C280.561 25.3485 282.465 26.2535 284.019 27.6186C285.481 28.9815 286.494 30.7561 286.925 32.7076C287.353 34.5372 287.304 36.446 286.782 38.2511C286.26 40.0562 285.284 41.6969 283.945 43.0159L283.501 42.1223C284.962 41.9161 286.453 42.0723 287.84 42.577C289.228 43.0818 290.47 43.9196 291.457 45.017C292.377 45.9804 293.078 47.1301 293.515 48.3883C293.951 49.6464 294.112 50.9836 293.987 52.3093C293.77 54.4594 292.974 56.5105 291.685 58.2445C290.395 59.9786 288.66 61.3307 286.663 62.1571C284.075 63.2229 281.237 63.5339 278.48 63.0541C277.758 62.9456 277.047 62.7753 276.354 62.5451C275.888 62.3727 275.653 62.2799 275.659 62.2502C275.665 62.2205 276.656 62.5219 278.519 62.7211C281.182 63.0468 283.884 62.6532 286.344 61.5814C288.194 60.7716 289.793 59.4791 290.973 57.8394C292.152 56.1996 292.869 54.2728 293.048 52.2608C293.147 51.0634 292.987 49.8587 292.58 48.7285C292.172 47.5982 291.526 46.569 290.685 45.7106C289.804 44.7413 288.7 44.002 287.468 43.5571C286.236 43.1122 284.915 42.9752 283.618 43.1579L281.89 43.4707L283.16 42.2677C284.356 41.0722 285.226 39.5908 285.689 37.9643C286.151 36.3377 286.19 34.6198 285.802 32.9739C285.41 31.2405 284.508 29.664 283.212 28.4475C281.848 27.2338 280.178 26.4153 278.382 26.08C276.235 25.6587 274.008 25.9851 272.072 27.0048L271.719 27.2097L271.42 26.9234C268.769 24.4483 265.255 23.1085 261.629 23.1905C258.277 23.2021 255.06 24.5134 252.655 26.8486C250.511 28.9796 249.088 31.7272 248.583 34.707C248.136 37.286 248.48 39.94 249.569 42.3199C251.208 45.7692 254.129 48.4421 257.71 49.7686C259.012 50.2197 260.355 50.5396 261.721 50.7234Z" fill="#263238"/>
<path d="M173.382 62.3384C173.325 62.1105 173.302 61.8759 173.311 61.6413C173.291 60.9709 173.326 60.2999 173.417 59.6353C173.741 57.1045 174.618 54.676 175.985 52.5216C178.055 49.1693 181.212 46.628 184.929 45.3217C187.285 44.5091 189.782 44.1856 192.268 44.3711C194.753 44.5566 197.174 45.2472 199.383 46.4006L198.772 46.4767C202.627 42.9385 207.625 40.9013 212.855 40.7356C216.802 40.6408 220.697 41.6509 224.101 43.6519C227.205 45.4762 229.807 48.0438 231.672 51.1235L231.176 50.8889C235.221 50.4124 239.32 50.9691 243.092 52.5071C246.01 53.6811 248.682 55.3937 250.968 57.5556C252.444 58.9502 253.721 60.5418 254.762 62.2855C255.145 62.8917 255.461 63.5383 255.702 64.2137C254.245 61.9409 252.515 59.8547 250.551 58.0015C248.277 55.9661 245.646 54.368 242.791 53.2874C239.14 51.8719 235.194 51.3876 231.309 51.8782L230.994 51.9609L230.823 51.683C229.015 48.7747 226.521 46.3548 223.559 44.6358C220.334 42.7204 216.638 41.7455 212.887 41.8216C207.921 41.9774 203.172 43.894 199.488 47.229L199.205 47.4857L198.877 47.3051C196.794 46.2058 194.511 45.5377 192.165 45.3406C189.818 45.1435 187.456 45.4214 185.219 46.1579C181.657 47.3571 178.6 49.7147 176.536 52.8544C175.158 54.9104 174.214 57.2251 173.759 59.6577C173.457 61.3928 173.467 62.344 173.382 62.3384Z" fill="#263238"/>
<path d="M118.748 182.051C118.748 182.051 119.505 179.158 130.816 177.722C142.127 176.285 193.316 194.924 193.316 194.924C193.316 194.924 193.566 227.986 218.944 227.646C237.428 227.401 245.361 220.144 245.361 220.144C245.361 220.144 283.887 248.655 290.126 262.762C290.126 262.762 175.798 397.438 195.731 380.833L172.537 387.195L118.748 182.051Z" fill="#407BFF"/>
<path d="M286.116 256.728C286.769 257.665 293.884 262.703 296.06 292.888C298.03 320.307 283.573 352.286 283.573 352.286L230.903 325.112L286.116 256.728Z" fill="#407BFF"/>
<path d="M269.263 283.049C269.13 283.337 268.966 283.611 268.775 283.865L267.267 286.084C265.916 287.996 263.943 290.744 261.44 294.094C256.447 300.791 249.418 309.945 241.566 319.973C233.714 330.001 226.5 339.035 221.275 345.596L215.036 353.265L213.305 355.333C213.122 355.586 212.909 355.816 212.671 356.018C212.823 355.746 213 355.489 213.198 355.248L214.823 353.097L220.886 345.291L241.019 319.597C248.883 309.566 255.969 300.468 261.052 293.845L267.055 285.971L268.67 283.836C268.844 283.557 269.042 283.293 269.263 283.049Z" fill="#263238"/>
<path d="M133.504 54.0913L-176.602 135.401L-63.588 566.42L246.518 485.11L133.504 54.0913Z" fill="white"/>
<path d="M133.504 54.0913L-176.602 135.401L-135.697 291.406L174.409 210.096L133.504 54.0913Z" fill="#407BFF"/>
<path d="M104.472 75.061L49.3586 89.5117C41.1799 91.6562 36.2882 100.025 38.4327 108.203L38.8354 109.739C40.9799 117.918 49.3485 122.81 57.5272 120.665L112.64 106.215C120.819 104.07 125.711 95.7016 123.566 87.523L123.163 85.9869C121.019 77.8082 112.65 72.9165 104.472 75.061Z" fill="#263238"/>
<path d="M130.731 262.379C130.779 262.562 88.1797 273.9 35.6136 287.683C-16.9526 301.466 -59.6611 312.496 -59.7093 312.312C-59.7575 312.129 -17.1709 300.794 35.4346 287.001C88.0401 273.207 130.68 262.182 130.731 262.379Z" fill="#263238"/>
<path d="M141.746 304.389C141.794 304.573 99.1943 315.911 46.6282 329.694C-5.93791 343.477 -48.6465 354.507 -48.6947 354.323C-48.7429 354.139 -6.15629 342.805 46.4492 329.012C99.0547 315.218 141.698 304.206 141.746 304.389Z" fill="#263238"/>
<path d="M152.765 346.413C152.814 346.597 110.214 357.935 57.6477 371.718C5.08163 385.501 -37.627 396.531 -37.6751 396.347C-37.7233 396.163 4.86324 384.829 57.4687 371.036C110.074 357.242 152.714 346.217 152.765 346.413Z" fill="#263238"/>
<path d="M164.676 395.051L-21.6033 443.893C-39.9183 448.696 -50.8727 467.436 -46.0704 485.751L-45.1582 489.23C-40.356 507.545 -21.6157 518.499 -3.30067 513.697L182.978 464.854C201.293 460.052 212.248 441.312 207.445 422.997L206.533 419.518C201.731 401.203 182.991 390.249 164.676 395.051Z" fill="#407BFF"/>
<path d="M10.5684 205.434L15.9796 226.072L11.1746 227.332L-0.817652 218.732L2.06354 229.721L-3.64733 231.218L-9.05859 210.58L-4.25359 209.32L7.72901 217.937L4.84438 206.935L10.5684 205.434Z" fill="white"/>
<path d="M14.6643 204.36L24.4187 201.803C26.4904 201.234 28.6641 201.144 30.7757 201.539C32.6568 201.878 34.3985 202.757 35.7887 204.069C37.1701 205.481 38.1601 207.228 38.6611 209.139C39.162 211.049 39.1568 213.057 38.6458 214.965C38.0824 216.793 36.9953 218.414 35.5192 219.63C33.8766 221.015 31.9369 222.004 29.8506 222.519L20.0962 225.077L14.6643 204.36ZM28.3716 217.842C29.9536 217.506 31.3429 216.568 32.2459 215.226C32.9768 213.817 33.1586 212.187 32.756 210.652C32.3535 209.116 31.3952 207.785 30.067 206.916C28.6242 206.179 26.9497 206.039 25.4044 206.525L21.7285 207.489L24.6957 218.806L28.3716 217.842Z" fill="white"/>
<path d="M56.9258 211.056L48.2086 213.342L47.6133 217.707L41.6662 219.266L45.3529 196.243L51.1031 194.735L65.7042 212.964L59.5733 214.571L56.9258 211.056ZM54.0901 207.197L49.7432 201.322L48.8387 208.574L54.0901 207.197Z" fill="white"/>
<path d="M74.904 204.757L71.7138 205.593L73.1526 211.081L67.3368 212.606L61.9255 191.968L71.3517 189.497C73.0092 189.024 74.7479 188.908 76.4536 189.155C77.9137 189.353 79.2779 189.995 80.3624 190.992C81.4468 191.99 82.1994 193.296 82.5187 194.735C82.9419 196.09 82.9479 197.541 82.5361 198.9C82.1244 200.259 81.3138 201.463 80.2095 202.356L86.3605 207.674L80.1114 209.313L74.904 204.757ZM75.1165 194.276C74.1816 193.905 73.145 193.878 72.1923 194.201L68.9496 195.051L70.5331 201.09L73.7758 200.24C74.7644 200.054 75.6546 199.522 76.2868 198.74C76.5222 198.381 76.6736 197.974 76.7297 197.549C76.7859 197.123 76.7453 196.691 76.611 196.284C76.5303 195.861 76.3583 195.462 76.1069 195.114C75.8555 194.765 75.5309 194.476 75.1558 194.266L75.1165 194.276Z" fill="white"/>
<path d="M83.719 186.254L93.434 183.707C95.5057 183.138 97.6794 183.048 99.791 183.443C101.671 183.787 103.411 184.665 104.804 185.973C106.185 187.385 107.175 189.132 107.676 191.043C108.177 192.953 108.172 194.962 107.661 196.87C107.093 198.695 106.007 200.315 104.534 201.534C102.892 202.919 100.952 203.908 98.8659 204.423L89.1509 206.971L83.719 186.254ZM97.4263 199.736C99.0058 199.404 100.392 198.466 101.287 197.124C102.028 195.717 102.215 194.083 101.811 192.545C101.408 191.007 100.444 189.676 99.1085 188.813C97.6716 188.073 96.0002 187.931 94.4591 188.419L90.7175 189.4L93.6847 200.717L97.4263 199.736Z" fill="white"/>
<path d="M64.0445 98.3732C64.4716 98.4527 64.8773 98.6204 65.2358 98.8656C65.5944 99.1109 65.8978 99.4282 66.1266 99.7974C66.3555 100.167 66.5048 100.58 66.565 101.01C66.6251 101.44 66.5949 101.878 66.4761 102.296C66.2767 102.851 65.9138 103.332 65.4352 103.677C64.8986 104.096 64.2775 104.393 63.6148 104.547L61.9344 104.988L62.5368 107.285L60.6069 107.791L58.4211 99.4548L62.0314 98.5082C62.6859 98.3244 63.3714 98.2784 64.0445 98.3732ZM64.3132 102.288C64.4318 102.117 64.5098 101.922 64.5411 101.717C64.5725 101.511 64.5563 101.302 64.4939 101.104C64.4541 100.895 64.366 100.699 64.2365 100.53C64.1071 100.362 63.94 100.227 63.7486 100.135C63.2958 99.9638 62.7977 99.9555 62.3394 100.111L60.7771 100.521L61.5344 103.409L63.0967 102.999C63.5568 102.904 63.9714 102.657 64.2738 102.298L64.3132 102.288Z" fill="white"/>
<path d="M70.1702 104.933C69.5622 104.82 68.9999 104.534 68.551 104.109C68.1142 103.669 67.8013 103.122 67.6441 102.523C67.4869 101.923 67.4911 101.293 67.656 100.696C67.8432 100.107 68.192 99.5829 68.6625 99.1829C69.1542 98.759 69.7362 98.453 70.3642 98.2884C70.9922 98.1237 71.6494 98.1047 72.2859 98.2328C72.7337 98.3381 73.1556 98.5327 73.5265 98.8049C73.8973 99.0771 74.2094 99.4213 74.4442 99.8169C74.6789 100.213 74.8314 100.651 74.8925 101.107C74.9537 101.563 74.9222 102.027 74.8001 102.47C74.6149 103.06 74.2658 103.584 73.7936 103.983C73.3019 104.407 72.7198 104.713 72.0919 104.878C71.4639 105.042 70.8066 105.061 70.1702 104.933ZM72.7338 102.563C72.9476 102.115 72.9957 101.605 72.8697 101.124C72.7437 100.644 72.4517 100.223 72.0454 99.9375C71.8549 99.8165 71.6405 99.7378 71.417 99.7068C71.1934 99.6759 70.9658 99.6934 70.7495 99.7581C70.5277 99.809 70.3191 99.9061 70.1374 100.043C69.9558 100.18 69.8051 100.354 69.6954 100.554C69.4816 101.002 69.4334 101.512 69.5595 101.992C69.6855 102.473 69.9775 102.893 70.3838 103.179C70.5773 103.299 70.7939 103.377 71.0195 103.407C71.2451 103.438 71.4745 103.42 71.6927 103.355C71.9146 103.3 72.1218 103.197 72.2998 103.053C72.4778 102.91 72.6224 102.729 72.7235 102.524L72.7338 102.563Z" fill="white"/>
<path d="M80.6323 96.0304C81.1906 96.1675 81.6971 96.4636 82.0905 96.8828C82.5074 97.3462 82.8074 97.9026 82.9654 98.5055C83.1235 99.1084 83.1351 99.7404 82.9993 100.349C82.8622 100.907 82.5661 101.413 82.1469 101.807C81.7262 102.212 81.2059 102.498 80.6388 102.637C80.2857 102.754 79.911 102.791 79.542 102.744C79.173 102.698 78.8189 102.57 78.5059 102.369L79.2907 105.362L77.4265 105.851L75.1408 97.1336L76.9131 96.6689L77.1059 97.404C77.2832 97.0551 77.5381 96.7514 77.851 96.5161C78.1638 96.2809 78.5263 96.1204 78.9108 96.0468C79.4732 95.8897 80.0671 95.884 80.6323 96.0304ZM80.9524 100.408C81.1662 99.9599 81.2143 99.4502 81.0883 98.9696C80.9623 98.489 80.6703 98.0686 80.2639 97.7827C79.8727 97.5545 79.4069 97.4909 78.9688 97.6058C78.5307 97.7207 78.1561 98.0046 77.9271 98.3954C77.7133 98.8439 77.6651 99.3535 77.7911 99.8341C77.9171 100.315 78.2092 100.735 78.6155 101.021C79.0068 101.249 79.4726 101.313 79.9107 101.198C80.3488 101.083 80.7234 100.799 80.9524 100.408Z" fill="white"/>
<path d="M89.8175 93.2851L91.4973 99.6918L89.7643 100.146L89.5647 99.3847C89.3935 99.7239 89.151 100.022 88.8537 100.259C88.5418 100.494 88.1854 100.664 87.806 100.758C87.4451 100.873 87.0648 100.915 86.6874 100.881C86.31 100.848 85.9431 100.739 85.6081 100.562C85.2716 100.339 84.9832 100.05 84.76 99.7137C84.5368 99.377 84.3832 98.9991 84.3083 98.6022L83.3583 94.9787L85.2225 94.4899L86.1003 97.8377C86.3722 98.8748 86.9397 99.2732 87.8193 99.0426C88.0192 98.9983 88.2073 98.9119 88.3711 98.7891C88.5349 98.6663 88.6706 98.5099 88.7691 98.3305C88.9757 97.8839 88.9982 97.374 88.8319 96.911L88.0023 93.747L89.8175 93.2851Z" fill="white"/>
<path d="M90.9014 90.4053L92.7656 89.9165L95.0822 98.7519L93.218 99.2407L90.9014 90.4053Z" fill="white"/>
<path d="M100.155 91.2342C100.512 91.4325 100.821 91.709 101.057 92.0432C101.292 92.3774 101.45 92.7606 101.517 93.1641L102.474 96.8138L100.741 97.2682L100.531 96.4674C100.399 96.8366 100.17 97.1629 99.866 97.4107C99.5624 97.6585 99.1967 97.8184 98.8086 97.873C98.3621 98.0076 97.891 98.04 97.4303 97.9678C97.0579 97.91 96.7093 97.7485 96.4242 97.502C96.1549 97.2489 95.9629 96.9246 95.8704 96.5668C95.7918 96.297 95.7794 96.0122 95.8341 95.7365C95.8888 95.4609 96.0091 95.2024 96.1847 94.9831C96.7024 94.4333 97.3821 94.0634 98.1248 93.9272L99.5951 93.5417C99.5597 93.3663 99.4867 93.2008 99.381 93.0565C99.2753 92.9122 99.1396 92.7926 98.9831 92.7059C98.6043 92.5511 98.1825 92.5372 97.7943 92.6669C97.4495 92.7552 97.1226 92.9026 96.8282 93.1026C96.5484 93.2747 96.3022 93.4961 96.1015 93.7561L95.1009 92.6154C95.412 92.2537 95.7826 91.9478 96.1966 91.7107C96.6546 91.4501 97.1448 91.2508 97.6548 91.1179C98.4728 90.8395 99.366 90.881 100.155 91.2342ZM99.7359 96.0584C99.9429 95.8508 100.065 95.5736 100.079 95.2808L99.9071 94.6244L98.5943 94.9686C97.8328 95.1683 97.5175 95.5176 97.6483 96.0164C97.6727 96.1287 97.7258 96.2327 97.8023 96.3184C97.8789 96.4041 97.9763 96.4684 98.0851 96.5052C98.3483 96.6012 98.6362 96.6048 98.9017 96.5156C99.2194 96.4504 99.51 96.2911 99.7359 96.0584Z" fill="white"/>
<path d="M105.191 89.4088C105.565 89.1346 105.99 88.9373 106.442 88.8283L106.889 90.535L106.469 90.6451C106.238 90.6915 106.019 90.7839 105.825 90.9168C105.631 91.0496 105.466 91.2203 105.339 91.4185C105.224 91.6373 105.155 91.8771 105.135 92.1234C105.115 92.3697 105.145 92.6175 105.224 92.8518L106.015 95.8714L104.204 96.3464L102.524 89.9398L104.296 89.475L104.516 90.3153C104.659 89.9598 104.891 89.6475 105.191 89.4088Z" fill="white"/>
<path d="M35.22 473.851C33.4645 473.438 31.8571 472.549 30.5752 471.28C29.2723 469.96 28.339 468.32 27.8684 466.525C27.3978 464.73 27.4065 462.844 27.8937 461.053C28.3946 459.325 29.3593 457.767 30.6831 456.548C32.0002 455.384 33.5513 454.517 35.232 454.003C36.9126 453.49 38.6838 453.343 40.4261 453.572C41.8862 453.786 43.274 454.346 44.4741 455.205L42.3138 458.577C41.5412 458.019 40.6531 457.641 39.7151 457.472C38.777 457.302 37.8129 457.346 36.8939 457.599C35.7794 457.871 34.7554 458.43 33.9233 459.22C33.1374 459.966 32.5797 460.92 32.3154 461.971C32.0641 463.086 32.0843 464.245 32.3742 465.351C32.6641 466.456 33.2154 467.476 33.9815 468.325C34.7302 469.107 35.6831 469.664 36.7322 469.933C37.8448 470.208 39.01 470.188 40.1124 469.874C41.04 469.647 41.9038 469.211 42.6382 468.6C43.3727 467.99 43.9586 467.22 44.3516 466.349L47.8889 468.228C47.2662 469.576 46.3292 470.755 45.1564 471.666C43.8791 472.641 42.4164 473.344 40.8578 473.734C39.0172 474.239 37.08 474.279 35.22 473.851Z" fill="white"/>
<path d="M61.2773 453.788C62.0509 454.284 62.7141 454.935 63.2258 455.698C63.7374 456.462 64.0865 457.323 64.2514 458.227L66.4648 466.669L62.1849 467.791L60.1437 460.006C59.9655 459.05 59.4512 458.19 58.6937 457.58C58.3292 457.357 57.9202 457.216 57.4954 457.167C57.0706 457.119 56.6403 457.163 56.2347 457.299C55.7427 457.397 55.2776 457.6 54.8704 457.893C54.4632 458.186 54.1235 458.563 53.8741 458.998C53.3949 460.006 53.3302 461.161 53.6937 462.216L55.6076 469.516L51.3277 470.638L45.9922 450.289L50.2721 449.167L52.1412 456.296C52.571 455.56 53.1571 454.927 53.8582 454.442C54.6189 453.915 55.4689 453.531 56.3668 453.307C57.1749 453.049 58.0272 452.958 58.8716 453.041C59.716 453.123 60.5346 453.378 61.2773 453.788Z" fill="white"/>
<path d="M73.1307 464.107C71.7691 463.81 70.5182 463.136 69.5202 462.164C68.5005 461.159 67.7833 459.889 67.4504 458.497C67.0618 457.12 67.0634 455.663 67.4548 454.287C67.8536 452.955 68.6136 451.76 69.6505 450.835C70.7656 449.831 72.1127 449.121 73.5706 448.768C75.0096 448.36 76.5281 448.319 77.9871 448.649C79.3412 448.948 80.5855 449.617 81.581 450.583C82.5972 451.59 83.3138 452.859 83.6508 454.249C84.0437 455.626 84.0421 457.084 83.6463 458.46C83.2585 459.795 82.5034 460.994 81.4672 461.922C80.3579 462.925 79.0145 463.634 77.5602 463.984C76.1168 464.392 74.5945 464.434 73.1307 464.107ZM79.0564 458.667C79.5148 457.644 79.6098 456.496 79.3255 455.411C79.0413 454.327 78.3949 453.373 77.4936 452.707C77.0502 452.435 76.5545 452.259 76.0388 452.191C75.523 452.123 74.9987 452.165 74.5 452.313C73.9917 452.431 73.5135 452.654 73.0955 452.966C72.6775 453.279 72.3288 453.674 72.0716 454.128C71.6055 455.15 71.5064 456.301 71.7912 457.387C72.076 458.473 72.7271 459.427 73.6344 460.089C74.0813 460.358 74.5793 460.532 75.0969 460.599C75.6144 460.666 76.1402 460.625 76.6411 460.479C77.1489 460.361 77.6261 460.138 78.0417 459.824C78.4573 459.509 78.8019 459.111 79.053 458.654L79.0564 458.667Z" fill="white"/>
<path d="M91.0773 459.402C89.7195 459.102 88.4731 458.428 87.48 457.454C86.4603 456.45 85.7431 455.18 85.4102 453.788C85.0216 452.411 85.0232 450.953 85.4146 449.577C85.8083 448.248 86.564 447.054 87.5972 446.129C88.7358 445.149 90.1003 444.468 91.5677 444.148C93.0066 443.739 94.5251 443.698 95.9841 444.028C97.3329 444.333 98.5717 445.003 99.5649 445.965C100.581 446.972 101.298 448.242 101.635 449.632C102.028 451.008 102.026 452.467 101.63 453.843C101.243 455.174 100.493 456.372 99.4643 457.301C98.3549 458.304 97.0116 459.013 95.5573 459.364C94.0907 459.751 92.5503 459.764 91.0773 459.402ZM96.9472 453.962C97.4133 452.941 97.5123 451.789 97.2276 450.703C96.9428 449.617 96.2917 448.663 95.3844 448.002C94.9436 447.729 94.4502 447.553 93.9366 447.485C93.4229 447.416 92.9007 447.457 92.4039 447.605C91.8947 447.72 91.4154 447.942 90.9971 448.255C90.5787 448.567 90.2307 448.964 89.9755 449.42C89.4988 450.439 89.3941 451.594 89.6795 452.683C89.965 453.771 90.6226 454.726 91.5383 455.38C91.9843 455.652 92.4823 455.827 93.0002 455.894C93.5182 455.962 94.0444 455.919 94.545 455.77C95.0502 455.655 95.5253 455.435 95.9393 455.123C96.3533 454.811 96.6967 454.416 96.9472 453.962Z" fill="white"/>
<path d="M107.704 455.603C106.657 455.636 105.611 455.498 104.608 455.194L105.234 451.747C106.091 452.015 106.983 452.154 107.882 452.161C108.841 452.184 109.799 452.074 110.729 451.836C112.541 451.361 113.332 450.686 113.102 449.81C113.04 449.599 112.909 449.415 112.731 449.287C112.552 449.158 112.336 449.093 112.116 449.101C111.32 449.051 110.52 449.087 109.731 449.207C108.683 449.33 107.628 449.382 106.572 449.362C105.725 449.316 104.904 449.047 104.193 448.582C103.788 448.306 103.441 447.952 103.174 447.54C102.907 447.128 102.725 446.667 102.638 446.184C102.393 445.292 102.451 444.345 102.802 443.489C103.206 442.557 103.868 441.76 104.711 441.193C105.771 440.457 106.96 439.927 108.216 439.628C109.261 439.35 110.335 439.191 111.416 439.154C112.361 439.089 113.31 439.182 114.224 439.428L113.605 442.845C112.116 442.451 110.549 442.455 109.062 442.858C108.344 443.003 107.672 443.319 107.101 443.779C106.931 443.916 106.801 444.096 106.726 444.302C106.651 444.507 106.634 444.728 106.677 444.943C106.732 445.164 106.861 445.361 107.042 445.499C107.224 445.638 107.448 445.71 107.676 445.705C108.506 445.757 109.34 445.726 110.164 445.614C111.206 445.508 112.253 445.463 113.299 445.479C114.124 445.511 114.925 445.761 115.622 446.203C116.406 446.743 116.949 447.567 117.136 448.5C117.374 449.382 117.308 450.319 116.949 451.159C116.522 452.091 115.839 452.883 114.981 453.443C113.893 454.175 112.682 454.706 111.407 455.011C110.203 455.365 108.958 455.564 107.704 455.603Z" fill="white"/>
<path d="M133.691 442.448L122.545 445.37C122.953 446.2 123.664 446.843 124.531 447.164C125.502 447.496 126.552 447.515 127.534 447.219C128.236 447.052 128.901 446.754 129.493 446.341C130.046 445.934 130.513 445.42 130.865 444.83L133.783 446.703C133.223 447.726 132.444 448.613 131.5 449.3C130.557 449.986 129.474 450.455 128.328 450.673C126.805 451.109 125.201 451.173 123.648 450.862C122.268 450.583 120.996 449.913 119.985 448.932C118.966 447.927 118.249 446.657 117.916 445.265C117.53 443.89 117.527 442.435 117.907 441.058C118.279 439.736 119.01 438.544 120.021 437.613C121.081 436.628 122.376 435.931 123.783 435.589C125.146 435.201 126.586 435.166 127.966 435.488C129.274 435.778 130.47 436.438 131.411 437.391C132.421 438.446 133.131 439.752 133.469 441.173C133.469 441.173 133.558 441.725 133.691 442.448ZM122.445 440.331C121.919 441.075 121.698 441.991 121.826 442.893L129.099 440.986C128.759 440.143 128.116 439.457 127.297 439.065C126.477 438.672 125.54 438.6 124.67 438.864C123.775 439.067 122.984 439.589 122.445 440.331Z" fill="white"/>
<path d="M11.6179 136.127L19.6775 145.406L31.8881 144.029L25.5564 154.557L30.6356 165.74L18.6574 162.974L9.59076 171.258L8.52889 159.021L-2.15386 152.955L9.16168 148.164L11.6179 136.127Z" fill="white"/>
<path d="M-8.82257 141.486L1.82903 153.749L17.9651 151.931L9.58839 165.843L16.2988 180.626L0.478479 176.959L-11.494 187.914L-12.9005 171.74L-27.0259 163.728L-12.0739 157.394L-8.82257 141.486Z" fill="white"/>
<path d="M18.6002 182.506L0.842538 178.407L-12.606 190.688L-14.1765 172.551L-30.0184 163.558L-13.2482 156.453L-9.58069 138.654L2.33518 152.367L20.4341 150.329L11.0397 165.925L18.6002 182.506ZM-24.0135 163.877L-11.6143 170.925L-10.385 185.139L0.150862 175.501L14.047 178.733L8.10802 165.768L15.4539 153.543L1.28061 155.141L-8.0833 144.365L-10.9585 158.336L-24.0135 163.877Z" fill="#407BFF"/>
<path d="M246.521 485.123C245.798 482.366 200.191 308.961 133.189 54.1738L133.587 54.4063L-176.48 135.706L-176.228 135.275C-133.939 296.558 -94.8144 445.775 -63.2764 566.324L-63.6244 566.121L246.554 485.086L-63.4798 566.672L-63.7555 566.744L-63.8278 566.469C-95.4314 445.937 -134.556 296.719 -176.91 135.454L-177 135.113L-176.619 135.013L133.447 53.7133L133.697 53.6479L133.776 53.9498C200.458 308.961 245.798 482.366 246.521 485.123Z" fill="#263238"/>
<path d="M49.7408 353.18C49.7408 353.18 43.3352 347.479 52.4384 344.685C61.5416 341.891 108.792 337.696 126.137 341.343L141.764 346.253L134.769 378.815L101.371 387.572C97.5371 388.577 85.0901 384.825 93.8635 377.67C93.8635 377.67 82.0884 373.377 89.7837 365.214C89.7837 365.214 81.0895 361.755 86.846 352.458L49.7408 353.18Z" fill="#FFBF9D"/>
<path d="M129.576 343.486L216.179 363.405L237.579 328.581L279.662 350.323C279.662 350.323 256.311 398.791 237.668 407.369C219.025 415.948 126.842 374.692 126.842 374.692L129.576 343.486Z" fill="#FFBF9D"/>
<path d="M177.326 199.973L176.724 200.566C175.766 201.423 174.694 202.144 173.539 202.706C172.975 202.922 172.428 203.178 171.901 203.472C171.612 203.742 171.347 204.037 171.108 204.353C169.341 206.121 166.713 206.909 164.455 207.823C161.902 208.787 159.186 209.934 157.582 212.165C155.978 214.396 155.944 218.011 158.255 219.495C157.412 219.731 156.684 220.267 156.208 221.001C155.731 221.736 155.539 222.619 155.667 223.485C155.828 224.348 156.207 225.155 156.767 225.831C157.327 226.506 158.051 227.028 158.869 227.346C160.519 227.968 162.307 228.129 164.042 227.813C163.104 228.236 162.367 229.006 161.986 229.962C161.606 230.918 161.612 231.985 162.004 232.936C162.439 233.871 163.105 234.68 163.939 235.286C164.773 235.892 165.747 236.276 166.771 236.401C168.819 236.637 170.893 236.419 172.847 235.761C175.388 234.997 177.971 234.376 180.582 233.902C180.582 233.902 181.246 236.436 181.546 237.578C181.952 239.127 181.635 237.919 181.635 237.919C183.233 238.365 184.886 238.579 186.544 238.554C190.293 238.778 192.766 239.112 196.087 239.097C198.569 239.091 200.929 238.781 201.767 236.892C203.789 232.349 194.46 228.986 194.46 228.986C196.44 227.064 193.858 219.785 190.14 219.68C191.626 218.392 192.727 218.202 193.311 216.309C193.624 215.373 193.712 214.376 193.568 213.4C193.424 212.424 193.053 211.495 192.483 210.689C191.881 209.908 191.04 209.345 190.088 209.088C189.136 208.83 188.126 208.893 187.213 209.265C188.078 208.01 188.542 206.523 188.546 205C188.55 203.476 188.092 201.987 187.233 200.728C186.149 199.24 184.553 198.205 182.753 197.82C181.86 197.628 180.939 197.599 180.036 197.733C179.69 197.76 179.353 197.849 179.038 197.994C178.903 198.079 178.784 198.186 178.686 198.311C178.188 198.765 177.823 199.407 177.326 199.973Z" fill="#FFBF9D"/>
<path d="M178.77 190.446C178.53 189.629 178.117 188.873 177.558 188.23C177 187.588 176.31 187.072 175.534 186.72C173.647 186.05 170.793 186.939 169 187.858C169.487 190.2 169.912 191.337 170.36 193.689C170.488 194.175 170.732 194.518 170.626 195.023C170.334 196.32 167.872 197.148 166.871 198.042C166.069 198.872 165.615 199.977 165.602 201.131C165.589 202.285 166.018 203.4 166.801 204.248C167.629 205.054 168.672 205.606 169.804 205.839C170.937 206.072 172.113 205.975 173.192 205.56C175.355 204.69 177.115 203.042 178.127 200.941C178.949 199.33 179.431 197.566 179.542 195.761C179.653 193.955 179.39 192.146 178.77 190.446Z" fill="#FFBF9D"/>
<path d="M187.82 208.965C187.869 209.149 181.327 211.65 173.163 214.548C164.999 217.446 158.325 219.659 158.26 219.466C158.196 219.272 164.754 216.781 172.918 213.882C181.082 210.984 187.756 208.771 187.82 208.965Z" fill="#FF9A6C"/>
<path d="M190.584 219.507C189.404 220.236 188.154 220.846 186.852 221.327C183.766 222.647 180.615 223.811 177.411 224.813C173.656 226.008 170.206 226.871 167.67 227.367C166.323 227.727 164.942 227.948 163.549 228.026C164.854 227.543 166.193 227.159 167.556 226.878C170.037 226.227 173.463 225.329 177.182 224.101C180.902 222.873 184.249 221.729 186.652 220.832C187.93 220.3 189.244 219.857 190.584 219.507Z" fill="#FF9A6C"/>
<path d="M193.287 229.812C192.293 230.399 191.233 230.865 190.13 231.202C188.137 231.949 185.342 232.85 182.215 233.712C179.088 234.574 176.242 235.278 174.194 235.815C173.092 236.159 171.959 236.39 170.811 236.506C171.847 236.002 172.934 235.609 174.053 235.333C176.09 234.7 178.916 233.917 182.026 233.046C185.137 232.174 187.956 231.365 189.98 230.736C191.054 230.336 192.161 230.027 193.287 229.812Z" fill="#FF9A6C"/>
<path d="M179.041 193.995C179.525 194.799 179.695 195.753 179.519 196.676C179.245 198.86 178.171 200.866 176.506 202.306C175.641 203.108 174.701 203.824 173.699 204.445C172.897 204.99 172.038 205.446 171.137 205.805C170.496 206.053 169.789 206.075 169.133 205.867C168.684 205.704 168.513 205.482 168.533 205.449C169.327 205.715 170.192 205.678 170.961 205.346C171.808 204.926 172.618 204.437 173.383 203.883C174.334 203.252 175.232 202.547 176.072 201.775C177.626 200.429 178.683 198.6 179.074 196.582C179.137 195.72 179.126 194.855 179.041 193.995Z" fill="#FF9A6C"/>
</svg>
