<svg width="489" height="456" viewBox="0 0 489 456" fill="none" xmlns="http://www.w3.org/2000/svg">
<g clip-path="url(#clip0_2254_1364)">
<path d="M231.614 441.304H316.048V300.245H231.614V441.304Z" fill="#B2B2B2"/>
<path d="M315.716 441.304H400.149V300.245H315.716V441.304Z" fill="#D1D1D1"/>
<path d="M323.307 166.859L333.476 215.551L301.715 219.641C301.715 219.641 298.961 169.04 301.715 168.768C304.469 168.522 323.307 166.859 323.307 166.859Z" fill="#A8754B"/>
<path d="M293.593 117.949C293.593 117.949 325.327 122.42 331.025 170.703C331.025 170.703 320.91 181.581 308.015 178.228L293.593 117.949Z" fill="#FFD686"/>
<path d="M279.819 116.286C279.819 116.286 248.903 113.233 238.025 135.016C227.119 156.799 258.908 179.482 248.003 229.4L316.542 225.774V181.745C316.542 181.745 329.029 163.533 311.335 144.013C311.335 144.013 310.272 114.35 279.819 116.286Z" fill="#FFD686"/>
<path d="M381.786 236.461C381.786 236.461 404.005 228.228 409.976 249.793C415.946 271.331 440.701 412.143 440.701 412.143H420.854L409.185 356.172C409.185 356.172 392.719 337.824 387.675 298.865L318.427 290.605L381.786 236.461Z" fill="#B5845B"/>
<path d="M336.359 287.988C336.359 287.988 348.137 287.661 369.048 281.008C389.959 274.329 404.871 281.39 396.638 304.945C388.405 328.473 346.801 437.526 346.801 437.526L331.043 432.809L344.647 362.198C344.647 362.198 347.837 327.165 362.614 306.636C362.614 306.636 331.534 308.19 320.901 306.554C310.323 304.945 336.359 287.988 336.359 287.988Z" fill="#A8754B"/>
<path d="M248.004 229.401C248.004 229.401 222.867 260.999 253.102 292.023C253.102 292.023 268.669 310.153 337.29 307.317C337.29 307.317 355.284 246.577 393.561 230.246L314.335 219.641L248.004 229.401Z" fill="#0C2C40"/>
<path d="M281.515 35.6143C281.515 35.6143 289.694 2.32616 261.368 2.13532C240.403 1.999 234.159 27.0537 259.868 43.8205L281.515 35.6143Z" fill="#190D08"/>
<path d="M258.915 49.8732C258.915 49.8732 253.79 36.7869 268.403 30.162C283.016 23.5371 287.678 39.2134 287.678 39.2134L258.915 49.8732Z" fill="#FD6C75"/>
<path d="M314.42 79.6447C314.42 79.6447 335.522 67.1582 312.703 42.0762C298.444 26.4001 273.471 27.2724 259.567 42.8123C245.663 58.3523 258.777 85.7516 258.777 85.7516L268.237 70.0208L276.525 57.807L288.384 53.0632L297.681 53.7175L305.56 54.7263L311.912 57.398L314.42 79.6447Z" fill="#27160C"/>
<path d="M297.194 89.7336L273.478 86.6875L268.678 124.06L292.394 127.106L297.194 89.7336Z" fill="#B5845B"/>
<path d="M270.993 97.8018C270.993 97.8018 273.556 111.406 284.488 114.16C287.896 115.005 291.604 114.023 293.676 111.215C294.249 110.452 294.657 109.579 294.794 108.598C295.312 104.672 284.952 97.8018 284.952 97.8018H270.993Z" fill="#A8754B"/>
<path d="M287.698 107.48L286.471 107.316C272.867 105.572 263.243 93.1124 264.988 79.5082L266.378 68.712C268.123 55.1078 280.582 45.4839 294.186 47.2287L295.413 47.3923C309.017 49.1371 318.641 61.5963 316.896 75.2006L315.506 85.9968C313.761 99.601 301.302 109.225 287.698 107.48Z" fill="#B5845B"/>
<path d="M267.659 76.8093C267.659 76.8093 284.726 71.2476 284.289 52.0817C284.289 52.0817 285.38 37.7959 270.44 51.0184C255.499 64.241 267.659 76.8093 267.659 76.8093Z" fill="#27160C"/>
<path d="M271.425 82.0437C270.825 86.6239 266.654 89.8682 262.046 89.2684C257.466 88.6687 254.222 84.4974 254.821 79.9172C255.421 75.337 259.592 72.0927 264.2 72.6925C268.78 73.265 272.024 77.4635 271.425 82.0437Z" fill="#B5845B"/>
<path d="M276.905 67.2129L276.141 73.2653C274.397 81.7986 270.798 79.2086 269.489 75.5281L276.905 67.2129Z" fill="#27160C"/>
<path d="M319.519 64.1318C319.519 64.1318 302.098 77.1908 276.552 57.834C258.941 44.5024 285.576 39.7041 285.576 39.7041L310.413 44.8296L319.519 64.1318Z" fill="#27160C"/>
<path d="M268.701 124.029C268.701 124.029 283.614 150.638 294.192 142.459C305.615 133.625 279.824 116.286 279.824 116.286L268.701 124.029Z" fill="#B5845B"/>
<path d="M275.293 178.229C275.293 178.229 284.508 195.213 290.806 208.545L357.982 204.674C357.982 204.674 371.313 193.768 381.755 202.983L371.45 215.361L287.343 233.981C284.126 234.69 280.773 233.763 278.401 231.528C270.958 224.494 254.764 208.109 246.912 191.397L275.293 178.229Z" fill="#B5845B"/>
<path d="M461.75 152.028H379.198C376.472 152.028 374.127 153.937 373.582 156.581L358.042 229.51C357.279 233.081 360.005 236.462 363.658 236.462H447.601C450.355 236.462 452.726 234.499 453.244 231.8L467.421 158.871C468.076 155.327 465.349 152.028 461.75 152.028Z" fill="#B2B2B2"/>
<path d="M466.491 152.028H383.938C381.212 152.028 378.867 153.937 378.322 156.581L362.782 229.51C362.019 233.081 364.745 236.462 368.398 236.462H452.341C455.095 236.462 457.467 234.499 457.985 231.8L472.161 158.871C472.816 155.327 470.117 152.028 466.491 152.028Z" fill="#D1D1D1"/>
<path d="M360.221 230.246H303.814C302.096 230.246 300.706 231.637 300.706 233.354C300.706 235.072 302.096 236.462 303.814 236.462H361.312L360.221 230.246Z" fill="#B2B2B2"/>
<path d="M415.368 192.35C415.368 197.312 419.403 201.347 424.365 201.347C429.327 201.347 433.362 197.312 433.362 192.35C433.362 187.388 429.327 183.354 424.365 183.354C419.403 183.354 415.368 187.361 415.368 192.35Z" fill="white"/>
<path d="M246.913 124.41C245.795 124.901 208.799 143.085 245.195 199.438C245.195 199.438 268.45 199.82 281.918 182.508C281.946 182.508 277.474 110.997 246.913 124.41Z" fill="#FFD686"/>
<path d="M326.768 429.728C327.259 428.256 328.867 427.71 329.958 428.664C332.084 430.546 335.901 432.866 341.517 432.293C347.379 431.721 349.56 428.256 350.405 425.775C350.841 424.466 352.095 423.812 353.213 424.357L388.71 442.187C390.864 443.277 392.554 445.295 393.372 447.803C394.162 450.175 392.581 452.713 390.346 452.659L329.031 450.966C326.605 450.911 324.778 448.539 324.969 445.786L325.978 432.263C326.005 432.045 326.032 431.83 326.114 431.612L326.768 429.728Z" fill="#FD6C75"/>
<path d="M416.266 406.392C416.375 404.838 417.766 403.883 419.047 404.538C421.583 405.792 425.863 407.019 431.152 405.001C436.632 402.902 437.859 399.003 438.022 396.386C438.104 395.023 439.14 394.041 440.367 394.287L479.298 402.22C481.67 402.711 483.824 404.21 485.296 406.419C486.687 408.491 485.814 411.353 483.661 411.871L424.036 426.294C421.692 426.866 419.292 425.067 418.774 422.34L416.212 409.036C416.157 408.818 416.157 408.6 416.157 408.354L416.266 406.392Z" fill="#FD6C75"/>
</g>
<g clip-path="url(#clip1_2254_1364)">
<path d="M67.1462 202.923C73.3805 199.168 81.4923 201.166 85.2473 207.424C89.0023 213.659 87.0045 221.77 80.7461 225.525C74.5118 229.28 66.4 227.282 62.645 221.024C58.89 214.814 60.9119 206.702 67.1462 202.923Z" fill="#B5845B"/>
<path d="M82.0929 203.862C81.6596 203.525 58.5037 176.325 58.5037 176.325L49.0439 187.783L69.9372 214.236L82.0929 203.862Z" fill="#B5845B"/>
<path d="M62.5709 415.923L56.6736 442.858L38.043 440.066L44.0606 413.492L62.5709 415.923Z" fill="#B5845B"/>
<path d="M146.089 413.517L146.306 441.102L127.555 442.498L127.507 415.25L146.089 413.517Z" fill="#B5845B"/>
<path d="M59.0296 438.477C58.6445 437.346 57.2724 436.865 56.2855 437.587C54.3599 438.983 50.9659 440.62 46.0555 440.042C40.9525 439.44 39.1232 436.744 38.4973 434.819C38.1604 433.808 37.0772 433.278 36.0903 433.663L4.48566 446.324C2.56001 447.095 1.01943 448.587 0.225102 450.488C-0.545159 452.27 0.754725 454.268 2.70445 454.268L56.4059 454.653C58.5241 454.677 60.209 452.92 60.1128 450.801L59.6554 440.427C59.6554 440.258 59.6073 440.09 59.5591 439.921L59.0296 438.477Z" fill="#0C0C0C"/>
<path d="M125.653 438.477C126.038 437.346 127.434 436.865 128.397 437.587C130.322 438.983 133.716 440.62 138.627 440.042C143.73 439.44 145.535 436.744 146.185 434.819C146.522 433.808 147.605 433.278 148.592 433.663L180.197 446.324C182.122 447.095 183.663 448.587 184.457 450.488C185.227 452.27 183.928 454.268 181.978 454.268L128.276 454.653C126.158 454.677 124.473 452.92 124.569 450.801L125.027 440.427C125.027 440.258 125.075 440.09 125.123 439.921L125.653 438.477Z" fill="#0C0C0C"/>
<path d="M125.411 67.6943L108.73 69.1386L82.2041 84.0864V190.382H152.996V84.0864L125.411 67.6943Z" fill="#54585A"/>
<path d="M120.845 78.406H116.055C111.097 78.406 107.077 74.3862 107.077 69.4277V51.4229H129.8V69.4277C129.824 74.3862 125.804 78.406 120.845 78.406Z" fill="#B5845B"/>
<path d="M107.077 60.5936C107.077 60.5936 110.616 67.6945 118.655 67.6945C126.695 67.6945 129.8 60.4492 129.8 60.4492L107.077 60.5936Z" fill="#AD6359"/>
<path d="M118.704 63.5301H117.957C106.379 63.5301 96.8472 54.3833 96.3898 42.8053L95.9809 31.2755C95.4995 19.0237 105.296 8.8418 117.548 8.8418H119.113C128.38 8.8418 141.161 19.0237 140.68 31.2755L140.271 42.8053C139.813 54.3833 130.282 63.5301 118.704 63.5301Z" fill="#B5845B"/>
<path d="M103.003 40.0128C103.268 43.9123 100.331 47.2821 96.4315 47.5469C92.5321 47.8117 89.1622 44.8751 88.8974 40.9756C88.6327 37.0762 91.5693 33.7063 95.4687 33.4415C99.3682 33.2008 102.738 36.1374 103.003 40.0128Z" fill="#B5845B"/>
<path d="M147.73 40.0128C147.995 43.9123 145.059 47.2821 141.159 47.5469C137.26 47.8117 133.89 44.8751 133.625 40.9756C133.36 37.0762 136.297 33.7063 140.196 33.4415C144.096 33.2008 147.466 36.1374 147.73 40.0128Z" fill="#B5845B"/>
<path d="M82.2097 189.877L38.1846 423.915L63.4828 423.674L127.848 190.334L82.2097 189.877Z" fill="#0C0C0C"/>
<path d="M153.002 190.382L150.234 424.155H123.491L112.828 191.85L153.002 190.382Z" fill="#0C0C0C"/>
<path d="M82.2052 84.0859C82.2052 84.0859 23.0879 119.759 8.71769 144.503C5.90143 149.341 9.56009 155.6 14.5186 158.175C20.0067 161.04 26.7706 159.09 29.9238 153.77L84.6123 122.045C84.6363 122.045 82.2052 94.7974 82.2052 84.0859Z" fill="#54585A"/>
<path d="M94.753 18.1811L96.4141 35.897H99.0857L99.423 26.6057C99.423 26.6057 100.819 23.0433 107.053 15.3889C107.053 15.3889 111.121 25.7873 136.323 23.7655L137.792 35.5119L140.391 35.223L141.763 22.6101C142.678 18.3496 142.991 14.3779 142.22 10.0933C140.656 1.42792 133.603 -3.36214 113.239 2.7518C111.554 3.25729 114.996 2.9203 113.239 2.7518C107.414 2.1019 92.0571 2.02969 94.753 18.1811Z" fill="#2E2A33"/>
<path d="M124.739 188.698L119.01 249.981C118.794 252.292 120.358 254.386 122.645 254.819L192.931 268.251C195.507 268.756 197.962 266.927 198.251 264.327L204.678 206.077C204.918 203.814 203.45 201.72 201.211 201.191L130.227 184.726C127.579 184.1 125.004 185.978 124.739 188.698Z" fill="#AFAFAF"/>
<path d="M128.64 189.781L122.912 251.064C122.695 253.375 124.259 255.469 126.546 255.902L196.832 269.334C199.408 269.815 201.863 268.01 202.152 265.41L208.579 207.16C208.82 204.897 207.351 202.803 205.113 202.274L134.129 185.809C131.505 185.183 128.905 187.061 128.64 189.781Z" fill="#D1D1D1"/>
<path d="M165.23 252.339C172.211 254.409 176.206 261.751 174.136 268.731C172.066 275.712 164.725 279.707 157.744 277.661C150.764 275.591 146.768 268.25 148.814 261.269C150.908 254.265 158.226 250.269 165.23 252.339Z" fill="#B5845B"/>
<path d="M174.638 263.989C174.59 263.436 172.327 226.704 172.327 226.704L159.834 228.967L161.495 260.282L174.638 263.989Z" fill="#B5845B"/>
<path d="M152.992 84.0859C152.992 84.0859 171.912 97.6377 173.115 116.942L179.037 162.075C179.374 164.723 179.518 167.37 179.422 170.042L177.135 238.692H151.163L150.682 164.386L152.992 84.0859Z" fill="#54585A"/>
<path d="M110.731 67.6943C108.71 69.1626 98.9609 74.6507 98.9609 74.6507C98.9609 74.6507 99.2257 88.371 119.878 87.2638C138.052 86.3009 137.931 75.1562 137.931 75.1562L125.39 67.6943H110.731Z" fill="#B5845B"/>
<path d="M37.8486 135.598L73.1843 192.067L56.4309 207.93L8.81934 152.351L37.8486 135.598Z" fill="#54585A"/>
<path d="M150.661 189.636V164.362L144.788 118.267" stroke="#424647" stroke-width="1.85175" stroke-miterlimit="10" stroke-linecap="round" stroke-linejoin="round"/>
</g>
<defs>
<clipPath id="clip0_2254_1364">
<rect width="258.999" height="455.293" fill="white" transform="translate(229.213)"/>
</clipPath>
<clipPath id="clip1_2254_1364">
<rect width="209.414" height="454.935" fill="white"/>
</clipPath>
</defs>
</svg>
