<svg width="1440" height="861" viewBox="0 0 1440 861" fill="none" xmlns="http://www.w3.org/2000/svg">
<path d="M1595.42 1241.42C1482.26 1092.56 1341.81 966.603 1181.55 870.277C880.221 690.608 348.001 525.424 44.4915 769.48C-48.3619 844.185 -158.873 988.584 -121.821 1103.77C-64.9783 1280.95 296.267 1374.91 561.881 1273.41C622.765 1249.91 679.282 1216.38 729.086 1174.21" stroke="#CCDEFB" stroke-opacity="0.08" stroke-width="2.55911" stroke-miterlimit="10"/>
<path d="M1548.79 1340.58C1454.8 1178.95 1330.89 1036.69 1183.68 921.419C906.707 706.035 398.791 476.663 67.6541 681.63C-33.6811 744.33 -161.007 874.047 -138.488 992.9C-103.767 1175.79 243.093 1313.4 519.173 1245.29C582.504 1229.46 642.729 1203.12 697.341 1167.36" stroke="#CCDEFB" stroke-opacity="0.08" stroke-width="2.55911" stroke-miterlimit="10"/>
<path d="M1490.31 1433.19C1416.9 1261.2 1311.41 1104.77 1179.46 972.264C931.061 724.538 455.287 434.449 101.333 597.153C-6.94617 646.758 -149.252 760.005 -141.712 880.743C-129.411 1066.61 197.956 1245.83 480.187 1212.15C544.981 1204.2 607.986 1185.46 666.588 1156.69" stroke="#CCDEFB" stroke-opacity="0.08" stroke-width="2.55911" stroke-miterlimit="10"/>
<path d="M1420.87 1518.06C1369.16 1338.37 1283.69 1170.18 1169.05 1022.46C952.936 746.066 516.347 399.676 145.181 517.685C31.5945 553.748 -123.558 648.493 -130.651 769.281C-141.662 955.1 161.252 1173.16 445.615 1174.45C510.881 1174.57 575.702 1163.72 637.373 1142.36" stroke="#CCDEFB" stroke-opacity="0.08" stroke-width="2.55911" stroke-miterlimit="10"/>
<path d="M1341.56 1593.66C1312.29 1409.05 1248.14 1231.69 1152.53 1071.08C972.033 769.977 581.325 372.593 198.454 444.073C81.2958 465.899 -84.2728 540.902 -106.197 659.904C-139.925 842.945 133.873 1096.43 415.905 1132.84C480.678 1140.94 546.351 1138.12 610.193 1124.5" stroke="#CCDEFB" stroke-opacity="0.08" stroke-width="2.55911" stroke-miterlimit="10"/>
<path d="M1253.57 1658.94C1247.32 1472.09 1205.54 1288.13 1130.46 1116.91C988.301 796.118 649.327 353.743 260.652 377.801C141.61 385.093 -31.9945 439.163 -68.253 554.543C-124.451 731.831 116.065 1017.26 391.401 1087.84C454.686 1103.86 520.209 1109.14 585.242 1103.47" stroke="#CCDEFB" stroke-opacity="0.08" stroke-width="2.55911" stroke-miterlimit="10"/>
<path d="M1158.23 1712.96C1174.89 1526.71 1155.93 1338.99 1102.38 1159.82C1000.75 823.996 718.768 343.325 329.994 319.217C210.951 311.876 32.3872 344.02 -18.1068 454.192C-95.435 623.493 108.227 936.301 372.899 1040.22C433.73 1063.88 498.094 1077.17 563.318 1079.56" stroke="#CCDEFB" stroke-opacity="0.08" stroke-width="2.55911" stroke-miterlimit="10"/>
<path d="M1056.95 1754.78C1096.37 1572.07 1100.63 1383.51 1069.5 1199.21C1009.93 853.262 789.104 341.54 406.282 269.861C289.125 247.935 107.634 258.005 44.1941 361.034C-53.3714 519.77 110.263 854.999 360.203 990.668C417.669 1021.63 479.923 1042.72 544.372 1053.07" stroke="#CCDEFB" stroke-opacity="0.08" stroke-width="2.55911" stroke-miterlimit="10"/>
<path d="M951.298 1783.9C1012.91 1607.35 1040.33 1420.69 1032.1 1233.88C1015.38 883.373 859.139 348.435 488.023 230.227C374.486 194.065 192.996 181.763 117.503 276.211C1.2378 421.503 122.463 774.54 353.803 939.922C407.032 977.7 466.216 1006.29 528.895 1024.5" stroke="#CCDEFB" stroke-opacity="0.08" stroke-width="2.55911" stroke-miterlimit="10"/>
<path d="M842.772 1799.77C925.546 1632.18 975.675 1450.37 990.484 1264.04C1017.02 914.177 927.689 364.06 573.834 201.158C465.604 151.305 287.14 116.83 200.486 201.158C67.4064 330.974 144.338 696.214 353.605 888.779C401.792 932.816 457.019 968.464 516.991 994.239" stroke="#CCDEFB" stroke-opacity="0.08" stroke-width="2.55911" stroke-miterlimit="10"/>
<path d="M733.353 1802.2C836.163 1646.02 908.279 1471.67 945.844 1288.49C1015.29 944.535 994.106 387.622 663.118 182.308C561.782 119.509 388.922 63.2567 292.547 136.523C144.24 249.225 175.687 621.211 359.707 837.934C402.11 887.576 452.544 929.747 508.908 962.69" stroke="#CCDEFB" stroke-opacity="0.08" stroke-width="2.55911" stroke-miterlimit="10"/>
<path d="M624.525 1791.19C745.752 1648.83 838.743 1484.67 898.522 1307.49C1009.58 974.645 1057.25 419.568 753.737 175.116C660.734 100.361 496.058 23.3249 391.4 83.942C230.444 177.447 215.961 550.227 371.956 788.33C407.933 842.799 452.801 890.84 504.689 930.447" stroke="#CCDEFB" stroke-opacity="0.08" stroke-width="2.55911" stroke-miterlimit="10"/>
<path d="M517.487 1766.83C655.308 1640.43 767.777 1488.91 848.872 1320.39C999.957 1003.76 1115.38 458.508 844.309 178.836C761.376 93.2679 607.414 -3.36221 496.158 44.2584C324.935 117.277 264.719 485.741 390.31 740.759C419.284 799.226 457.845 852.427 504.392 898.155" stroke="#CCDEFB" stroke-opacity="0.08" stroke-width="2.55911" stroke-miterlimit="10"/>
<path d="M414.466 1729.53C566.736 1621.03 696.945 1484.52 798.131 1327.29C987.012 1031.39 1168.55 504.69 933.939 193.767C862.116 98.8233 721.249 -16.2101 604.984 17.2235C426.122 68.614 321.067 426.76 414.367 695.42C436.034 757.027 467.891 814.558 508.609 865.614" stroke="#CCDEFB" stroke-opacity="0.08" stroke-width="2.55911" stroke-miterlimit="10"/>
<path d="M316.999 1679.88C481.466 1590.88 627.467 1471.35 747.19 1327.68C970.99 1057.49 1215.92 556.874 1021.24 219.463C961.715 116.235 835.976 -15.0688 716.437 3.83061C532.615 32.8494 384.407 375.42 443.978 653.653C457.855 717.45 482.334 778.467 516.396 834.165" stroke="#CCDEFB" stroke-opacity="0.08" stroke-width="2.55911" stroke-miterlimit="10"/>
<path d="M225.98 1618.57C400.117 1550.46 559.698 1449.82 696.199 1322.03C951.447 1081.35 1256.05 614.713 1104.32 255.873C1057.89 146.097 949.264 0.358386 828.337 4.57479C642.333 10.7754 453.154 332.512 478.103 615.805C483.996 680.807 500.763 744.358 527.704 803.807" stroke="#CCDEFB" stroke-opacity="0.08" stroke-width="2.55911" stroke-miterlimit="10"/>
<path d="M143.395 1546.54C324.573 1500.38 495.3 1420.13 646.449 1310.07C929.374 1102.58 1289.18 676.818 1182.49 302.203C1149.9 187.566 1060.02 29.3766 939.443 18.7116C754.084 2.0444 526.762 298.086 516.693 582.271C514.612 647.524 523.481 712.665 542.932 774.986" stroke="#CCDEFB" stroke-opacity="0.08" stroke-width="2.55911" stroke-miterlimit="10"/>
<path d="M70.2324 1464.94C255.73 1441.4 435.045 1382.73 598.584 1292.07C904.871 1120.93 1313.98 742.594 1254.46 357.711C1236.21 239.899 1166.42 72.0863 1048.17 46.4902C866.281 7.15363 604.288 273.035 559.399 553.848C549.292 618.339 550.08 684.069 561.73 748.299" stroke="#CCDEFB" stroke-opacity="0.08" stroke-width="2.55911" stroke-miterlimit="10"/>
<path d="M7.68555 1374.96C194.677 1374.41 379.852 1338.24 553.298 1268.36C878.235 1136.16 1330.85 810.95 1318.94 421.651C1315.32 302.6 1266.66 127.346 1152.43 87.464C976.694 26.0533 684.047 257.559 605.032 530.881C587.081 593.708 579.787 659.101 583.456 724.34" stroke="#CCDEFB" stroke-opacity="0.08" stroke-width="2.55911" stroke-miterlimit="10"/>
<path d="M-43.3037 1277.98C142.326 1300.41 330.529 1287.26 511.237 1239.24C849.963 1147.96 1339.08 880.893 1375.14 493.033C1386.15 374.378 1359.42 194.561 1251.14 140.839C1084.33 58.3464 765.393 252.251 653.394 513.669C627.869 573.748 612.595 637.682 608.207 702.812" stroke="#CCDEFB" stroke-opacity="0.08" stroke-width="2.55911" stroke-miterlimit="10"/>
<path d="M-82.042 1175.5C99.4361 1220.57 287.837 1230.67 473.094 1205.26C820.302 1156.3 1338.73 951.381 1422.11 570.912C1447.91 454.391 1443.19 272.44 1342.16 206.069C1186.76 103.784 846.442 256.964 703.144 502.557C670.439 559.06 647.436 620.646 635.091 684.755" stroke="#CCDEFB" stroke-opacity="0.08" stroke-width="2.55911" stroke-miterlimit="10"/>
<path d="M-107.835 1068.99C66.727 1136 252.452 1169.15 439.415 1166.67C790.194 1160.76 1329.66 1021.08 1459.21 653.753C1498.9 541.348 1516.75 360.44 1424.49 281.965C1282.83 161.227 926.25 271.498 753.886 497.696C714.562 549.752 684.248 608.036 664.207 670.122" stroke="#CCDEFB" stroke-opacity="0.08" stroke-width="2.55911" stroke-miterlimit="10"/>
<path d="M-120.383 960.111C44.6068 1048.08 224.848 1103.81 410.697 1124.3C759.542 1161.61 1312.1 1089.23 1485.8 740.61C1538.97 633.91 1578.95 456.623 1497.21 367.384C1371.52 230.177 1004.08 295.804 805.175 499.084C759.667 545.958 722.346 600.134 694.762 659.357" stroke="#CCDEFB" stroke-opacity="0.08" stroke-width="2.55911" stroke-miterlimit="10"/>
<path d="M-119.491 850.535C33.4421 958.1 205.467 1035.54 387.383 1078.72C729.036 1158.58 1286.25 1154.71 1501.47 830.048C1567.34 730.838 1628.85 559.652 1558.66 461.088C1450.78 309.446 1078.08 329.437 855.717 506.675C804.815 547.542 761.123 596.653 726.456 651.967" stroke="#CCDEFB" stroke-opacity="0.08" stroke-width="2.55911" stroke-miterlimit="10"/>
<path d="M-105.057 741.9C33.5099 867.438 194.706 965.449 369.924 1030.7C699.176 1151.93 1252.82 1216.57 1506.19 920.824C1583.71 830.345 1665.75 668.138 1608.27 561.686C1519.78 397.99 1147.47 371.947 905.021 520.563C849.481 554.867 800.074 598.225 758.847 648.841" stroke="#CCDEFB" stroke-opacity="0.08" stroke-width="2.55911" stroke-miterlimit="10"/>
<path d="M-77.4287 635.894C44.665 777.499 192.596 894.566 358.466 980.846C670.309 1141.61 1211.61 1273.81 1499.59 1011.45C1587.68 931.191 1689.02 780.294 1645.02 667.592C1577.36 494.173 1211.06 422.643 952.192 540.306C892.876 567.454 838.523 604.34 791.385 649.436" stroke="#CCDEFB" stroke-opacity="0.08" stroke-width="2.55911" stroke-miterlimit="10"/>
<path d="M-37.0039 534.006C66.7643 689.572 199.212 823.948 353.258 929.951C642.929 1127.87 1163.99 1325.55 1481.93 1100.59C1579.25 1031.74 1698.34 894.434 1668.53 777.168C1622.7 596.805 1267.95 480.78 996.535 565.753C934.319 585.428 875.84 615.391 823.526 654.397" stroke="#CCDEFB" stroke-opacity="0.08" stroke-width="2.55911" stroke-miterlimit="10"/>
<path d="M15.6719 437.922C99.5184 605.062 214.444 754.693 354.299 878.809C617.483 1110.81 1110.27 1371.04 1453.46 1186.85C1558.47 1130.5 1693.58 1008.87 1678.4 888.829C1655.04 704.002 1317.26 545.267 1037.51 596.459C973.323 608.371 911.591 630.956 854.874 663.276" stroke="#CCDEFB" stroke-opacity="0.08" stroke-width="2.55911" stroke-miterlimit="10"/>
<path d="M79.7568 349.03C142.439 525.15 238.106 687.711 361.64 828.014C594.319 1090.92 1051.39 1409.58 1414.62 1269C1525.78 1225.94 1674.78 1121.87 1674.43 1000.89C1673.99 814.77 1358.23 615.706 1074.26 631.926C1009.1 635.848 945.072 650.688 884.833 675.827" stroke="#CCDEFB" stroke-opacity="0.08" stroke-width="2.55911" stroke-miterlimit="10"/>
<path d="M154.257 268.67C194.786 451.226 269.75 624.379 375.131 778.855C573.783 1068.05 988.201 1440.63 1365.96 1345.74C1481.53 1316.67 1642.19 1231.65 1656.77 1111.55C1679.14 926.776 1390.27 690.459 1106.55 671.659C1041.39 667.55 975.997 674.408 913.105 691.947" stroke="#CCDEFB" stroke-opacity="0.08" stroke-width="2.55911" stroke-miterlimit="10"/>
<path d="M238.034 198.033C255.86 384.179 308.988 565.224 394.575 731.483C556.176 1042.9 921.687 1463.6 1308.23 1416.03C1426.53 1401.4 1596.41 1336.66 1625.68 1219.4C1670.61 1038.78 1412.94 768.736 1133.68 715.213C1069.53 703.154 1003.81 701.913 939.246 711.542" stroke="#CCDEFB" stroke-opacity="0.08" stroke-width="2.55911" stroke-miterlimit="10"/>
<path d="M329.894 138.508C324.726 325.425 355.195 511.617 419.672 687.137C541.79 1015.92 852.69 1478.33 1242.31 1478.43C1361.35 1478.43 1538.08 1435.23 1581.48 1322.28C1648.24 1148.66 1425.73 848.898 1155.16 761.445C1092.98 741.546 1027.92 732.191 962.656 733.765" stroke="#CCDEFB" stroke-opacity="0.08" stroke-width="2.55911" stroke-miterlimit="10"/>
<path d="M428.402 90.3418C400.265 275.228 407.622 463.783 450.078 645.915C530.878 987.345 782.752 1484.24 1169.29 1532.45C1287.59 1547.33 1468.09 1525.9 1525.03 1419.15C1612.68 1254.96 1428.66 930.2 1170.88 810.206C1111.63 782.829 1048.2 765.591 983.24 759.212" stroke="#CCDEFB" stroke-opacity="0.08" stroke-width="2.55911" stroke-miterlimit="10"/>
<path d="M532.07 54.7744C481.439 234.79 465.565 422.804 485.296 608.76C523.539 957.532 712.37 1481.8 1090.08 1576.95C1205.65 1606.06 1387.44 1607.21 1457.13 1508.29C1564.27 1356.11 1421.52 1011.2 1180.46 860.405C1125.01 825.97 1064.18 801.071 1000.5 786.742" stroke="#CCDEFB" stroke-opacity="0.08" stroke-width="2.55911" stroke-miterlimit="10"/>
<path d="M639.406 32.2539C567.008 204.668 528.122 389.299 524.827 576.269C519.867 927.124 642.878 1470.69 1005.96 1611.47C1117.06 1654.58 1297.32 1678.04 1378.61 1588.41C1503.61 1450.55 1404.35 1090.72 1183.63 911.449C1132.84 870.449 1075.53 838.256 1014.09 816.208" stroke="#CCDEFB" stroke-opacity="0.08" stroke-width="2.55911" stroke-miterlimit="10"/>
<path d="M748.529 23.0771C655.536 185.297 594.295 363.748 568.08 548.888C520.067 896.468 575.372 1451.05 918.463 1635.23C1023.42 1691.68 1199.45 1737.12 1291.12 1658.15C1432.13 1536.72 1377.82 1167.41 1180.8 962.344C1135.42 915.417 1082.49 876.433 1024.21 847.012" stroke="#CCDEFB" stroke-opacity="0.08" stroke-width="2.55911" stroke-miterlimit="10"/>
<path d="M857.948 27.3926C745.723 176.959 663.018 346.539 614.258 527.061C523.934 866.06 510.443 1423.27 828.485 1648.38C925.753 1717.28 1094.84 1784 1195.53 1716.88C1350.44 1613.7 1341.91 1240.68 1171.58 1012.79C1132.31 960.647 1084.58 915.459 1030.36 879.107" stroke="#CCDEFB" stroke-opacity="0.08" stroke-width="2.55911" stroke-miterlimit="10"/>
<path d="M966.08 45.1016C836.334 179.744 733.428 337.876 662.868 511.039C531.524 836.397 449.881 1387.7 737.666 1650.16C825.708 1730.52 985.325 1817.48 1093.46 1763.31C1259.87 1679.93 1297.27 1308.54 1156.2 1061.6C1123.64 1005.02 1081.83 954.301 1032.5 911.548" stroke="#CCDEFB" stroke-opacity="0.08" stroke-width="2.55911" stroke-miterlimit="10"/>
<path d="M1071.23 76.0059C925.918 193.676 804.345 337.951 713.014 501.119C542.734 807.875 393.93 1345 647.293 1640.84C724.82 1731.37 872.532 1837.32 986.614 1796.8C1161.95 1734.49 1244.54 1370.54 1135.07 1108.13C1109.76 1048 1074.55 992.532 1030.91 944.04" stroke="#CCDEFB" stroke-opacity="0.08" stroke-width="2.55911" stroke-miterlimit="10"/>
<path d="M1171.78 119.559C1013.11 218.49 874.737 346.738 764.054 497.448C557.316 780.939 343.684 1295.69 558.755 1620.45C624.576 1719.66 758.102 1843.13 876.202 1816.93C1057.89 1776.66 1184.77 1425.6 1108.19 1151.73C1090.4 1088.91 1062.2 1029.52 1024.76 976.035" stroke="#CCDEFB" stroke-opacity="0.08" stroke-width="2.55911" stroke-miterlimit="10"/>
<path d="M1266.17 175.166C1096.56 253.846 943.493 364.115 815.145 500.077C574.927 756.038 299.889 1240.58 473.393 1589.3C526.467 1696.05 643.922 1834.79 764.304 1823.33C949.614 1805.67 1118.65 1472.88 1076.3 1191.72C1066.35 1127.19 1045.68 1064.79 1015.14 1007.09" stroke="#CCDEFB" stroke-opacity="0.08" stroke-width="2.55911" stroke-miterlimit="10"/>
<path d="M1353.07 241.934C1175.06 299.176 1009.59 389.798 865.489 508.956C595.907 733.467 263.182 1180.56 392.492 1547.93C432.173 1660.38 531.375 1812.52 652.501 1815.79C838.506 1821.05 1047.18 1511.57 1039.69 1227.28C1037.67 1162.07 1024.76 1097.66 1001.5 1036.7" stroke="#CCDEFB" stroke-opacity="0.08" stroke-width="2.55911" stroke-miterlimit="10"/>
<path d="M1431.09 318.87C1247.41 353.813 1072.05 423.408 914.396 523.936C619.22 713.625 234.116 1116.42 317.297 1496.93C342.792 1613.41 422.799 1776.61 542.388 1794.86C726.358 1822.94 971.487 1541.43 999.016 1258.38C1005.11 1193.39 1000.26 1127.83 984.681 1064.43" stroke="#CCDEFB" stroke-opacity="0.08" stroke-width="2.55911" stroke-miterlimit="10"/>
<path d="M1499.04 404.836C1312.46 416.926 1129.88 464.451 961.071 544.87C644.863 696.81 213.135 1049.25 248.947 1437.11C259.958 1555.77 319.281 1727.6 435.745 1760.44C614.855 1810.88 892.72 1561.62 954.771 1284.23C968.839 1220.48 972.109 1154.81 964.443 1089.98" stroke="#CCDEFB" stroke-opacity="0.08" stroke-width="2.55911" stroke-miterlimit="10"/>
<path d="M1555.94 498.489C1369.27 487.556 1182.23 512.287 1004.82 571.359C672.489 683.267 200.584 979.953 188.481 1369.3C184.811 1488.35 222.557 1666.24 334.11 1713.11C505.482 1785.39 812.018 1572.09 907.748 1304.22C929.527 1242.68 940.827 1177.92 941.179 1112.65" stroke="#CCDEFB" stroke-opacity="0.08" stroke-width="2.55911" stroke-miterlimit="10"/>
<path d="M1600.88 598.443C1416.97 564.64 1228.32 566.189 1045 603.006C701.26 673.247 196.816 909.713 136.799 1294.6C118.496 1412.36 134.17 1593.46 239.077 1653.68C400.479 1746.35 730.723 1572.38 858.595 1318.41C887.789 1260.01 906.97 1197.13 915.339 1132.39" stroke="#CCDEFB" stroke-opacity="0.08" stroke-width="2.55911" stroke-miterlimit="10"/>
<path d="M1633.21 703.158C1454.81 647.026 1267.35 625.426 1080.86 639.515C731.217 666.798 201.378 839.472 94.6854 1214.09C62.0479 1328.72 55.3021 1510.38 152.024 1583.05C300.828 1694.81 649.97 1562.76 808.099 1326.44C844.276 1272.07 871.101 1212.03 887.461 1148.81" stroke="#CCDEFB" stroke-opacity="0.08" stroke-width="2.55911" stroke-miterlimit="10"/>
<path d="M1652.41 811.05C1482.33 733.387 1299.01 688.857 1112.25 679.845C761.772 664.12 214.473 770.324 62.7926 1129.02C16.3163 1238.74 -12.7003 1418.21 74.3497 1502.19C208.273 1631.17 571.006 1543.32 756.961 1328.18C799.502 1278.66 833.437 1222.35 857.353 1161.61" stroke="#CCDEFB" stroke-opacity="0.08" stroke-width="2.55911" stroke-miterlimit="10"/>
<path d="M1658.26 920.427C1498.98 822.479 1322.49 755.763 1138.25 723.843C792.377 665.161 236.398 703.307 41.5646 1040.62C-17.9568 1143.8 -68.8476 1318.41 7.24055 1412.41C124.25 1557.1 495.018 1514.2 706.022 1323.56C754.333 1279.67 794.927 1227.98 826.106 1170.63" stroke="#CCDEFB" stroke-opacity="0.08" stroke-width="2.55911" stroke-miterlimit="10"/>
<path d="M1650.58 1029.76C1504.54 912.975 1337.6 825.08 1158.68 770.77C822.635 670.022 266.159 639.516 31.3972 950.389C-40.4748 1045.48 -112.446 1212.45 -48.411 1315.13C49.9977 1473.12 423.197 1476.1 655.925 1312.85C709.257 1275.22 755.901 1228.91 793.916 1175.84" stroke="#CCDEFB" stroke-opacity="0.08" stroke-width="2.55911" stroke-miterlimit="10"/>
<path d="M1629.54 1137.3C1498.96 1003.47 1344.09 895.733 1173.21 819.829C852.046 678.555 303.557 579.941 32.3875 859.513C-50.6449 945.081 -142.506 1101.93 -91.6154 1211.71C-13.444 1380.36 356.63 1429.42 607.761 1296.04C665.305 1265.22 717.28 1224.98 761.524 1176.98" stroke="#CCDEFB" stroke-opacity="0.08" stroke-width="2.55911" stroke-miterlimit="10"/>
</svg>
