<svg width="182" height="351" viewBox="0 0 182 351" fill="none" xmlns="http://www.w3.org/2000/svg">
<path d="M3.19627 152.149L13.8047 156.709L12.4496 145.241L3.19627 152.149ZM13.6686 152.11C16.0662 151.942 18.383 151.832 20.6229 151.779L20.5753 149.779C18.3031 149.833 15.9556 149.944 13.5288 150.114L13.6686 152.11ZM27.549 151.797C29.9345 151.87 32.2239 152.013 34.4232 152.223L34.6129 150.232C32.3689 150.018 30.0365 149.872 27.6103 149.798L27.549 151.797ZM41.232 153.128C43.5755 153.533 45.8054 154.023 47.9309 154.591L48.4472 152.659C46.2617 152.075 43.9732 151.572 41.5729 151.157L41.232 153.128ZM54.4442 156.689C56.6399 157.527 58.7122 158.46 60.675 159.478L61.5963 157.703C59.5654 156.649 57.4235 155.685 55.1571 154.821L54.4442 156.689ZM66.5278 162.973C68.439 164.274 70.2388 165.669 71.9448 167.146L73.2538 165.634C71.4924 164.109 69.6316 162.667 67.6536 161.319L66.5278 162.973ZM76.8789 171.898C78.4429 173.563 79.9286 175.304 81.3548 177.108L82.9238 175.868C81.4667 174.025 79.9441 172.24 78.3369 170.529L76.8789 171.898ZM85.4446 182.659C86.743 184.538 88.0014 186.466 89.2376 188.433L90.931 187.369C89.6829 185.383 88.4084 183.43 87.09 181.522L85.4446 182.659ZM92.846 194.353C94.0222 196.33 95.1921 198.329 96.3747 200.346L98.1 199.335C96.919 197.32 95.7451 195.314 94.5647 193.33L92.846 194.353ZM99.9229 206.348C101.11 208.328 102.324 210.313 103.579 212.292L105.268 211.221C104.025 209.26 102.82 207.29 101.638 205.32L99.9229 206.348ZM107.431 218.129C108.747 220.036 110.116 221.929 111.553 223.797L113.138 222.578C111.725 220.74 110.376 218.876 109.077 216.993L107.431 218.129ZM115.999 229.229C117.523 230.973 119.121 232.685 120.808 234.359L122.216 232.939C120.566 231.301 119 229.623 117.505 227.913L115.999 229.229ZM125.99 239.122C127.746 240.615 129.59 242.065 131.532 243.465L132.702 241.843C130.804 240.475 129.002 239.057 127.286 237.598L125.99 239.122ZM137.395 247.351C139.352 248.541 141.4 249.683 143.545 250.773L144.451 248.99C142.351 247.923 140.348 246.805 138.434 245.642L137.395 247.351ZM149.905 253.723C151.997 254.606 154.172 255.443 156.436 256.231L157.093 254.342C154.869 253.568 152.734 252.747 150.683 251.881L149.905 253.723ZM163.104 258.329C164.237 258.649 165.389 258.959 166.563 259.256L167.054 257.318C165.898 257.024 164.764 256.72 163.649 256.404L163.104 258.329Z" fill="#015CE9"/>
<path d="M46.1872 84.5537L54.5249 76.5652L43.4378 73.3388L46.1872 84.5537ZM50.447 74.4307C51.3068 72.0514 52.1926 69.8317 53.1031 67.7619L51.2723 66.9566C50.3423 69.071 49.4399 71.3328 48.566 73.7511L50.447 74.4307ZM56.2673 61.3313C57.497 59.1055 58.7634 57.1068 60.0633 55.3144L58.4442 54.1402C57.092 56.0048 55.7823 58.0733 54.5167 60.3641L56.2673 61.3313ZM64.6344 49.9574C66.4179 48.2031 68.254 46.7544 70.1373 45.5659L69.0699 43.8745C67.061 45.1423 65.1132 46.681 63.2319 48.5316L64.6344 49.9574ZM76.4512 42.5499C78.6736 41.7913 80.9609 41.2939 83.3094 41.0022L83.0628 39.0174C80.5955 39.3239 78.1726 39.849 75.8051 40.6571L76.4512 42.5499ZM90.4082 40.6858C92.7438 40.742 95.1268 40.9339 97.554 41.2129L97.7824 39.226C95.3124 38.942 92.8672 38.7444 90.4563 38.6864L90.4082 40.6858ZM104.693 42.2188C107.054 42.5964 109.434 43.0065 111.851 43.41L112.181 41.4373C109.778 41.0361 107.378 40.6229 105.009 40.2439L104.693 42.2188ZM119.048 44.5344C121.453 44.8715 123.879 45.1601 126.317 45.3592L126.48 43.3658C124.09 43.1707 121.704 42.8871 119.326 42.5537L119.048 44.5344ZM133.658 45.6467C136.101 45.6261 138.554 45.4769 141.011 45.1582L140.754 43.1748C138.387 43.4819 136.014 43.6268 133.641 43.6468L133.658 45.6467ZM148.263 43.6879C150.581 43.036 152.894 42.1985 155.198 41.142L154.365 39.324C152.158 40.3357 149.942 41.1379 147.721 41.7626L148.263 43.6879ZM161.695 37.5377C163.658 36.2481 165.609 34.7749 167.545 33.0977L166.236 31.586C164.364 33.2071 162.484 34.6266 160.597 35.866L161.695 37.5377ZM172.81 27.9773C173.638 27.0807 174.462 26.1423 175.282 25.1604L173.748 23.8778C172.948 24.8353 172.145 25.7491 171.34 26.621L172.81 27.9773Z" fill="#015CE9"/>
<path d="M19.529 301.334L31.0746 301.156L25.1476 291.246L19.529 301.334ZM29.5397 296.816C31.789 295.658 33.9488 294.635 36.0246 293.738L35.2314 291.902C33.1109 292.818 30.9103 293.861 28.6242 295.038L29.5397 296.816ZM42.7196 291.181C45.1354 290.387 47.4235 289.784 49.5958 289.356L49.2087 287.394C46.949 287.839 44.5816 288.464 42.0952 289.28L42.7196 291.181ZM56.5908 288.542C59.0915 288.471 61.4227 288.659 63.6115 289.07L63.9806 287.104C61.6459 286.666 59.1715 286.468 56.5337 286.543L56.5908 288.542ZM70.29 291.158C72.4345 292.115 74.4488 293.307 76.368 294.692L77.5382 293.07C75.522 291.615 73.3894 290.351 71.1049 289.331L70.29 291.158ZM81.7843 299.291C83.4572 300.922 85.0725 302.685 86.6609 304.541L88.1805 303.241C86.5642 301.352 84.9072 299.543 83.1803 297.859L81.7843 299.291ZM91.2068 310.137C92.6792 312.02 94.1443 313.941 95.6405 315.882L97.2244 314.66C95.7368 312.731 94.2601 310.795 92.7824 308.905L91.2068 310.137ZM100.148 321.604C101.68 323.487 103.261 325.35 104.912 327.155L106.388 325.806C104.77 324.036 103.215 322.204 101.699 320.342L100.148 321.604ZM110.095 332.362C111.899 334.01 113.798 335.57 115.814 337.009L116.976 335.381C115.032 333.994 113.196 332.486 111.443 330.885L110.095 332.362ZM122.128 340.867C124.27 341.967 126.535 342.928 128.942 343.722L129.569 341.823C127.263 341.062 125.094 340.142 123.042 339.088L122.128 340.867ZM136.155 345.503C138.471 345.894 140.903 346.143 143.463 346.232L143.532 344.233C141.058 344.147 138.714 343.907 136.488 343.531L136.155 345.503ZM150.805 346.064C152.022 345.97 153.264 345.844 154.534 345.683L154.282 343.699C153.045 343.856 151.835 343.979 150.652 344.07L150.805 346.064Z" fill="#015CE9"/>
</svg>
