<svg width="54" height="29" viewBox="0 0 54 29" fill="none" xmlns="http://www.w3.org/2000/svg">
<path d="M50.0449 24.5677C45.5467 22.6555 41.0567 20.7374 36.5383 18.8655C36.226 18.7338 35.6854 18.886 35.3685 19.0849C27.8389 23.8784 20.0097 24.2277 12.0254 20.4276C10.6981 19.7959 9.55505 18.7372 8.64867 17.2879C7.44886 15.3783 8.02784 13.1718 9.96761 12.0123C11.6632 10.9976 13.5304 10.836 15.4335 10.874C19.647 10.9731 23.6911 12.0417 27.6867 13.2472C30.2194 14.0103 32.7014 14.9245 35.2843 15.7884C35.8248 14.6928 35.6384 13.146 34.8579 12.2695C33.3854 10.6013 32.3482 10.0549 30.8138 9.11231C25.9992 6.15319 20.6679 4.47325 15.1355 3.58525C11.0179 2.92384 6.85743 2.55871 2.71533 2.06661C2.35453 2.02154 1.98158 2.01072 1.64501 1.94755C1.11901 1.84973 0.770679 1.61921 0.749396 1.16957C0.653482 0.737937 1.26893 0.466986 1.60988 0.350731C2.17074 0.158301 2.78783 0.0748534 3.37651 0.0881208C12.6644 0.209414 21.6978 1.59026 30.0723 5.87903C31.9091 6.82219 33.6243 8.05744 35.2286 9.36303C37.5272 11.2446 38.5768 13.6438 37.3813 16.6757C41.5971 18.6477 45.7524 20.5894 49.9823 22.5635C49.0775 21.3521 48.2209 20.2052 47.3583 19.0503C47.2135 18.8565 47.0445 18.6807 46.9159 18.4748C46.5642 17.9197 45.9404 17.3036 46.6634 16.6881C47.3702 16.0847 47.9031 16.7813 48.255 17.2356C50.0549 19.5274 51.8365 21.8455 53.5233 24.2218C54.2109 25.1929 53.9248 26.1238 52.7791 26.3755C49.4712 27.135 46.1132 27.7433 42.7653 28.3314C42.4547 28.3872 41.7998 28.2347 41.6821 27.6054C41.6387 27.1094 42.194 26.7073 42.5389 26.6132C44.6226 26.0508 46.7365 25.5792 48.8463 25.0854C49.2194 24.9955 49.6047 24.9216 49.9838 24.8397C50.6371 24.8047 50.3974 24.7196 50.0449 24.5677ZM33.7497 17.9789C34.0586 17.786 33.3533 17.6334 33.2505 17.5969C27.8733 15.687 22.4495 13.9504 16.7349 13.425C15.2069 13.2828 13.5979 13.4026 12.0952 13.7323C10.1004 14.1779 9.69193 15.8041 11.2032 17.2042C12.1813 18.1094 13.3429 18.9403 14.5737 19.4428C19.7932 21.5963 26.6182 21.3175 30.4157 19.7142C31.8605 19.088 32.1997 18.8347 33.7497 17.9789Z" fill="#222222"/>
</svg>
