<svg width="41" height="41" viewBox="0 0 41 41" fill="none" xmlns="http://www.w3.org/2000/svg">
<path d="M30.2835 36.95C29.7668 36.95 29.2501 36.8166 28.7835 36.5333L22.1001 32.5666C21.4001 32.5499 20.7001 32.5 20.0335 32.4C19.5835 32.3333 19.2001 32.0332 19.0335 31.5999C18.8668 31.1666 18.9501 30.6999 19.2501 30.3499C20.3501 29.0666 20.9168 27.5333 20.9168 25.8999C20.9168 21.8666 17.3668 18.5833 13.0001 18.5833C11.3668 18.5833 9.80012 19.0333 8.48345 19.9C8.11678 20.1333 7.66679 20.1666 7.26679 19.9833C6.88346 19.8 6.60014 19.4333 6.55014 18.9999C6.50014 18.5333 6.4668 18.0666 6.4668 17.5833C6.4668 9.31663 13.6335 2.59998 22.4335 2.59998C31.2335 2.59998 38.4001 9.31663 38.4001 17.5833C38.4001 22.1166 36.3001 26.2833 32.6001 29.1333L33.1668 33.6667C33.3001 34.8 32.8001 35.8667 31.8501 36.4833C31.3835 36.7833 30.8335 36.95 30.2835 36.95ZM22.4168 30.0499C22.6501 30.0333 22.8835 30.1 23.0835 30.2333L30.0668 34.3833C30.2501 34.5 30.4001 34.45 30.5001 34.3833C30.5835 34.3333 30.7168 34.2 30.6835 33.9667L30.0335 28.6999C29.9835 28.2333 30.1835 27.7833 30.5501 27.5167C33.9501 25.1333 35.9001 21.4999 35.9001 17.5499C35.9001 10.6666 29.8668 5.06661 22.4335 5.06661C15.2835 5.06661 9.41679 10.2667 8.98345 16.8C10.2335 16.3167 11.5835 16.05 12.9835 16.05C18.7335 16.05 23.4001 20.4499 23.4001 25.8666C23.4168 27.3332 23.0668 28.7499 22.4168 30.0499Z" fill="#F3F3F3"/>
<path d="M8.13296 38.4167C7.69962 38.4167 7.28295 38.3001 6.89961 38.0501C6.14961 37.5668 5.74963 36.7334 5.84963 35.8501L6.18296 33.2834C3.93296 31.45 2.59961 28.7334 2.59961 25.8834C2.59961 22.6334 4.29963 19.6001 7.14963 17.7834C8.86629 16.6667 10.8996 16.0668 13.0163 16.0668C18.7663 16.0668 23.4329 20.4667 23.4329 25.8834C23.4329 28.0834 22.6329 30.2501 21.1663 31.9667C19.2829 34.2501 16.4663 35.5834 13.3663 35.6834L9.29962 38.1001C8.93295 38.3167 8.53296 38.4167 8.13296 38.4167ZM12.9996 18.5668C11.3663 18.5668 9.79961 19.0167 8.48294 19.8834C6.34961 21.2501 5.08295 23.4834 5.08295 25.8834C5.08295 28.2 6.21629 30.3168 8.21629 31.6834C8.59963 31.9501 8.79961 32.4 8.74961 32.8667L8.38295 35.7167L12.3663 33.3501C12.5663 33.2334 12.783 33.1667 12.9996 33.1667C15.4496 33.1667 17.7663 32.1168 19.233 30.3334C20.333 29.0334 20.9163 27.5 20.9163 25.8667C20.9163 21.85 17.3663 18.5668 12.9996 18.5668Z" fill="#F3F3F3"/>
</svg>
