<svg width="33" height="33" viewBox="0 0 33 33" fill="none" xmlns="http://www.w3.org/2000/svg">
<path d="M27.25 11.0859V24.1875C27.25 28.2188 24.8447 29.5625 21.875 29.5625H11.125C8.15531 29.5625 5.75 28.2188 5.75 24.1875V11.0859C5.75 6.71875 8.15531 5.71094 11.125 5.71094C11.125 6.54406 11.4609 7.29656 12.0118 7.8475C12.5628 8.39843 13.3153 8.73438 14.1484 8.73438H18.8516C20.5178 8.73438 21.875 7.37719 21.875 5.71094C24.8447 5.71094 27.25 6.71875 27.25 11.0859Z" stroke="#292D32" stroke-width="2.01562" stroke-linecap="round" stroke-linejoin="round"/>
<path d="M21.875 5.71094C21.875 7.37719 20.5178 8.73438 18.8516 8.73438H14.1484C13.3153 8.73438 12.5628 8.39843 12.0118 7.8475C11.4609 7.29656 11.125 6.54406 11.125 5.71094C11.125 4.04469 12.4822 2.6875 14.1484 2.6875H18.8516C19.6847 2.6875 20.4372 3.02344 20.9882 3.57438C21.5391 4.12532 21.875 4.87781 21.875 5.71094Z" stroke="#292D32" stroke-width="2.01562" stroke-linecap="round" stroke-linejoin="round"/>
<path d="M11.125 17.4688H16.5" stroke="#292D32" stroke-width="2.01562" stroke-linecap="round" stroke-linejoin="round"/>
<path d="M11.125 22.8438H21.875" stroke="#292D32" stroke-width="2.01562" stroke-linecap="round" stroke-linejoin="round"/>
</svg>
