<svg width="50" height="50" viewBox="0 0 50 50" fill="none" xmlns="http://www.w3.org/2000/svg">
<path d="M25 35.1562C29.3147 35.1562 32.8125 31.6585 32.8125 27.3438C32.8125 23.029 29.3147 19.5312 25 19.5312C20.6853 19.5312 17.1875 23.029 17.1875 27.3438C17.1875 31.6585 20.6853 35.1562 25 35.1562Z" stroke="white" stroke-width="2" stroke-linecap="round" stroke-linejoin="round"/>
<path d="M38.2812 22.6563C40.1011 22.6532 41.8964 23.0755 43.5241 23.8893C45.1518 24.7032 46.5668 25.8861 47.6562 27.3438" stroke="white" stroke-width="2" stroke-linecap="round" stroke-linejoin="round"/>
<path d="M2.34375 27.3438C3.4332 25.8861 4.8482 24.7032 6.4759 23.8893C8.10359 23.0755 9.89894 22.6532 11.7188 22.6563" stroke="white" stroke-width="2" stroke-linecap="round" stroke-linejoin="round"/>
<path d="M13.75 42.1874C14.779 40.0801 16.3791 38.3042 18.3681 37.062C20.357 35.8198 22.655 35.1611 25 35.1611C27.345 35.1611 29.6429 35.8198 31.6319 37.062C33.6209 38.3042 35.221 40.0801 36.25 42.1874" stroke="white" stroke-width="2" stroke-linecap="round" stroke-linejoin="round"/>
<path d="M11.7187 22.6562C10.5325 22.6575 9.37041 22.321 8.36825 21.6863C7.3661 21.0516 6.56527 20.1448 6.05934 19.0718C5.55342 17.9989 5.36328 16.8041 5.51116 15.6271C5.65903 14.4501 6.13881 13.3395 6.89444 12.4251C7.65006 11.5106 8.65032 10.8301 9.77834 10.463C10.9064 10.0959 12.1156 10.0575 13.2646 10.3521C14.4137 10.6467 15.4552 11.2622 16.2675 12.1268C17.0797 12.9913 17.6291 14.0692 17.8516 15.2344" stroke="white" stroke-width="2" stroke-linecap="round" stroke-linejoin="round"/>
<path d="M32.1484 15.2344C32.3709 14.0692 32.9203 12.9913 33.7325 12.1268C34.5448 11.2622 35.5863 10.6467 36.7354 10.3521C37.8844 10.0575 39.0936 10.0959 40.2217 10.463C41.3497 10.8301 42.3499 11.5106 43.1056 12.4251C43.8612 13.3395 44.341 14.4501 44.4888 15.6271C44.6367 16.8041 44.4466 17.9989 43.9407 19.0718C43.4347 20.1448 42.6339 21.0516 41.6317 21.6863C40.6296 22.321 39.4675 22.6575 38.2812 22.6562" stroke="white" stroke-width="2" stroke-linecap="round" stroke-linejoin="round"/>
</svg>
