<svg width="64" height="64" viewBox="0 0 64 64" fill="none" xmlns="http://www.w3.org/2000/svg">
<g clip-path="url(#clip0_480_190)">
<path d="M63.792 56.915C63.792 58.7385 63.0677 60.4872 61.7784 61.7767C60.4891 63.0662 58.7405 63.7907 56.917 63.791H6.875C5.05154 63.7907 3.30286 63.0662 2.01358 61.7767C0.724296 60.4872 -1.92838e-08 58.7385 0 56.915L0 6.875C0.000795023 5.05188 0.725379 3.30366 2.01452 2.01452C3.30366 0.725379 5.05188 0.000795023 6.875 0L56.917 0C58.7402 0.000530154 60.4886 0.725029 61.7778 2.01423C63.067 3.30342 63.7915 5.0518 63.792 6.875V56.915Z" fill="#37B34A"/>
<path d="M53.8671 14.14C52.9285 13.3384 51.7101 12.9423 50.4797 13.0387C49.2492 13.1351 48.1073 13.7161 47.3051 14.654L27.2651 38.091L16.4841 29.091C16.0573 28.7239 15.5618 28.4452 15.0263 28.2713C14.4909 28.0974 13.9262 28.0316 13.3651 28.0778C12.804 28.124 12.2577 28.2813 11.758 28.5405C11.2582 28.7997 10.815 29.1557 10.454 29.5877C10.093 30.0197 9.8215 30.5192 9.65526 31.057C9.48901 31.5949 9.43134 32.1605 9.48559 32.7208C9.53985 33.2812 9.70495 33.8252 9.97129 34.3212C10.2376 34.8172 10.5999 35.2553 11.0371 35.61L25.4811 47.67C25.9265 48.0414 26.4435 48.317 27.0001 48.4797C27.5567 48.6425 28.1408 48.6889 28.7161 48.616C29.3262 48.5689 29.921 48.4019 30.4665 48.1246C31.012 47.8473 31.4974 47.4651 31.8951 47L54.3781 20.7C55.1788 19.761 55.5742 18.5427 55.4777 17.3125C55.3811 16.0823 54.8004 14.9406 53.8631 14.138" fill="#F4F4F4"/>
</g>
<defs>
<clipPath id="clip0_480_190">
<rect width="64" height="64" fill="white"/>
</clipPath>
</defs>
</svg>
