<svg width="50" height="50" viewBox="0 0 50 50" fill="none" xmlns="http://www.w3.org/2000/svg">
<path d="M25 43.75C35.3553 43.75 43.75 35.3553 43.75 25C43.75 14.6447 35.3553 6.25 25 6.25C14.6447 6.25 6.25 14.6447 6.25 25C6.25 35.3553 14.6447 43.75 25 43.75Z" stroke="white" stroke-width="2" stroke-linecap="round" stroke-linejoin="round"/>
<path d="M41.8359 33.2813L31.2305 26.7579C31.0479 26.6405 30.8407 26.567 30.625 26.5431L26.1523 25.9376C25.8186 25.8897 25.4785 25.9538 25.1851 26.1199C24.8918 26.286 24.6618 26.5447 24.5312 26.8556L21.8555 32.8517C21.7297 33.1305 21.6885 33.4402 21.7371 33.7423C21.7857 34.0444 21.922 34.3255 22.1289 34.5509L25.8008 38.5157C25.9668 38.6981 26.0884 38.9164 26.1561 39.1536C26.2239 39.3907 26.236 39.6403 26.1914 39.8829L25.4297 43.7501" stroke="white" stroke-width="2" stroke-linecap="round" stroke-linejoin="round"/>
<path d="M12.6953 10.8594L10.9375 15C10.7844 15.3676 10.7774 15.7798 10.918 16.1523L13.1641 22.1289C13.2518 22.378 13.4021 22.6004 13.6004 22.7748C13.7988 22.9492 14.0386 23.0698 14.2969 23.125L18.4766 24.0234C18.7086 24.0704 18.9264 24.1707 19.1129 24.3165C19.2993 24.4622 19.4493 24.6495 19.5508 24.8633L20.293 26.4062C20.4248 26.6671 20.6256 26.887 20.8735 27.0419C21.1214 27.1968 21.4069 27.2809 21.6992 27.2852H24.3359" stroke="white" stroke-width="2" stroke-linecap="round" stroke-linejoin="round"/>
<path d="M29.7852 6.85547L31.6016 10.1367C31.7693 10.4452 31.8296 10.8007 31.773 11.1473C31.7164 11.4938 31.5462 11.8117 31.2891 12.0508L26.0352 16.7969C25.9472 16.8809 25.8487 16.9531 25.7422 17.0117L23.3398 18.3398C23.1108 18.4614 22.8568 18.5282 22.5977 18.5352H18.418C18.1101 18.5367 17.8093 18.6281 17.5526 18.7981C17.2958 18.9681 17.0943 19.2093 16.9727 19.4922L15.3516 23.3398" stroke="white" stroke-width="2" stroke-linecap="round" stroke-linejoin="round"/>
</svg>
