<svg width="42" height="42" viewBox="0 0 42 42" fill="none" xmlns="http://www.w3.org/2000/svg">
<g clip-path="url(#clip0_435_72)">
<path d="M20.9844 3.48633C25.7144 3.48633 26.3045 3.50374 28.1603 3.59078C30.0143 3.67782 31.2765 3.96855 32.3872 4.40029C33.5361 4.84247 34.5041 5.44133 35.472 6.40752C36.3572 7.27777 37.0422 8.33047 37.4792 9.49234C37.9092 10.6013 38.2017 11.8652 38.2887 13.7192C38.3705 15.575 38.3932 16.1651 38.3932 20.8951C38.3932 25.625 38.3758 26.2152 38.2887 28.071C38.2017 29.925 37.9092 31.1871 37.4792 32.2978C37.0434 33.4603 36.3583 34.5133 35.472 35.3826C34.6015 36.2675 33.5489 36.9525 32.3872 37.3899C31.2782 37.8199 30.0143 38.1123 28.1603 38.1994C26.3045 38.2812 25.7144 38.3038 20.9844 38.3038C16.2545 38.3038 15.6643 38.2864 13.8085 38.1994C11.9545 38.1123 10.6924 37.8199 9.5817 37.3899C8.41936 36.9537 7.36648 36.2686 6.49687 35.3826C5.61147 34.5125 4.92648 33.4598 4.48964 32.2978C4.05791 31.1889 3.76718 29.925 3.68014 28.071C3.59831 26.2152 3.57568 25.625 3.57568 20.8951C3.57568 16.1651 3.59309 15.575 3.68014 13.7192C3.76718 11.8634 4.05791 10.603 4.48964 9.49234C4.92527 8.32975 5.61042 7.27677 6.49687 6.40752C7.36673 5.52181 8.41954 4.83678 9.5817 4.40029C10.6924 3.96855 11.9528 3.67782 13.8085 3.59078C15.6643 3.50896 16.2545 3.48633 20.9844 3.48633ZM20.9844 12.1907C18.6759 12.1907 16.4619 13.1078 14.8295 14.7402C13.1971 16.3725 12.2801 18.5865 12.2801 20.8951C12.2801 23.2036 13.1971 25.4176 14.8295 27.05C16.4619 28.6824 18.6759 29.5994 20.9844 29.5994C23.293 29.5994 25.507 28.6824 27.1393 27.05C28.7717 25.4176 29.6888 23.2036 29.6888 20.8951C29.6888 18.5865 28.7717 16.3725 27.1393 14.7402C25.507 13.1078 23.293 12.1907 20.9844 12.1907ZM32.3001 11.7555C32.3001 11.1783 32.0708 10.6248 31.6627 10.2168C31.2547 9.80865 30.7012 9.57939 30.124 9.57939C29.5469 9.57939 28.9934 9.80865 28.5853 10.2168C28.1772 10.6248 27.9479 11.1783 27.9479 11.7555C27.9479 12.3326 28.1772 12.8861 28.5853 13.2942C28.9934 13.7023 29.5469 13.9316 30.124 13.9316C30.7012 13.9316 31.2547 13.7023 31.6627 13.2942C32.0708 12.8861 32.3001 12.3326 32.3001 11.7555ZM20.9844 15.6724C22.3696 15.6724 23.6979 16.2227 24.6774 17.2021C25.6568 18.1816 26.2071 19.5099 26.2071 20.8951C26.2071 22.2802 25.6568 23.6086 24.6774 24.588C23.6979 25.5675 22.3696 26.1177 20.9844 26.1177C19.5993 26.1177 18.2709 25.5675 17.2915 24.588C16.312 23.6086 15.7618 22.2802 15.7618 20.8951C15.7618 19.5099 16.312 18.1816 17.2915 17.2021C18.2709 16.2227 19.5993 15.6724 20.9844 15.6724Z" fill="#F3F3F3"/>
</g>
<defs>
<clipPath id="clip0_435_72">
<rect width="41.781" height="41.781" fill="white" transform="translate(0.09375 0.00488281)"/>
</clipPath>
</defs>
</svg>
