<svg width="42" height="43" viewBox="0 0 42 43" fill="none" xmlns="http://www.w3.org/2000/svg">
<g clip-path="url(#clip0_435_66)">
<path d="M32.0127 32.3688H27.3733V25.0972C27.3733 23.3633 27.3385 21.1315 24.9535 21.1315C22.5354 21.1315 22.1663 23.0186 22.1663 24.9701V32.3688H17.5252V17.4164H21.9818V19.4533H22.0427C22.666 18.2799 24.1805 17.0387 26.4437 17.0387C31.144 17.0387 32.0145 20.1339 32.0145 24.1606V32.3688H32.0127ZM12.2851 15.3709C11.931 15.3714 11.5802 15.3019 11.2529 15.1665C10.9256 15.0312 10.6283 14.8325 10.3779 14.582C10.1276 14.3315 9.92912 14.034 9.79395 13.7066C9.65879 13.3793 9.58956 13.0285 9.59025 12.6743C9.5906 12.1413 9.74898 11.6204 10.0454 11.1774C10.3418 10.7344 10.7629 10.3893 11.2555 10.1856C11.748 9.98197 12.2899 9.92896 12.8126 10.0333C13.3353 10.1376 13.8153 10.3946 14.1919 10.7717C14.5686 11.1488 14.8249 11.6292 14.9286 12.152C15.0322 12.6748 14.9785 13.2166 14.7742 13.7089C14.5699 14.2012 14.2242 14.6219 13.7809 14.9177C13.3375 15.2135 12.8164 15.3712 12.2834 15.3709H12.2851ZM14.6109 32.3688H9.95758V17.4164H14.6127V32.3688H14.6109ZM34.3368 5.66553H7.63003C6.34874 5.66553 5.31641 6.67523 5.31641 7.92344V34.7433C5.31641 35.9916 6.35049 37.0013 7.62829 37.0013H34.3298C35.6076 37.0013 36.6521 35.9916 36.6521 34.7433V7.92344C36.6521 6.67523 35.6076 5.66553 34.3298 5.66553H34.335H34.3368Z" fill="#F3F3F3"/>
</g>
<defs>
<clipPath id="clip0_435_66">
<rect width="41.781" height="41.781" fill="white" transform="translate(0.09375 0.442871)"/>
</clipPath>
</defs>
</svg>
