<svg width="42" height="43" viewBox="0 0 42 43" fill="none" xmlns="http://www.w3.org/2000/svg">
<g clip-path="url(#clip0_435_69)">
<path d="M38.6752 10.0696C37.3461 10.6575 35.9367 11.0436 34.4936 11.2151C36.0147 10.3054 37.1531 8.87366 37.6968 7.18673C36.2693 8.03627 34.7042 8.63165 33.073 8.95371C31.9773 7.78137 30.525 7.00387 28.9419 6.74208C27.3587 6.48029 25.7334 6.74888 24.3186 7.5061C22.9039 8.26331 21.7789 9.46672 21.1186 10.9292C20.4584 12.3918 20.2998 14.0315 20.6676 15.5934C17.7727 15.4483 14.9407 14.696 12.3554 13.3854C9.7701 12.0748 7.48936 10.2351 5.66122 7.98579C5.01412 9.09725 4.67406 10.3607 4.67588 11.6468C4.67588 14.1711 5.96065 16.4012 7.91391 17.7068C6.75798 17.6704 5.6275 17.3583 4.61669 16.7964V16.8869C4.61704 18.568 5.19879 20.1974 6.2633 21.4986C7.3278 22.7998 8.80956 23.6928 10.4573 24.0262C9.38428 24.317 8.25914 24.3599 7.16707 24.1515C7.63166 25.5986 8.53715 26.8642 9.75678 27.771C10.9764 28.6779 12.4491 29.1806 13.9687 29.2088C12.4584 30.3949 10.7292 31.2717 8.87989 31.7891C7.03056 32.3064 5.0974 32.4542 3.19092 32.224C6.51894 34.3643 10.3931 35.5005 14.3499 35.4968C27.7425 35.4968 35.0663 24.4022 35.0663 14.7804C35.0663 14.4671 35.0576 14.1502 35.0437 13.8403C36.4692 12.81 37.6996 11.5337 38.6769 10.0714L38.6752 10.0696Z" fill="#F3F3F3"/>
</g>
<defs>
<clipPath id="clip0_435_69">
<rect width="41.781" height="41.781" fill="white" transform="translate(0.09375 0.223633)"/>
</clipPath>
</defs>
</svg>
